         <svg version="1.1" id="Layer_1" xmlns="http://www.w3.org/2000/svg" xmlns:xlink="http://www.w3.org/1999/xlink"
                x="0px" y="0px" viewBox="0 0 1000 850" style="enable-background:new 0 0 1000 850;"
                fill="#fff"
                xml:space="preserve">
                <g>
                    <path
                        d="M1000,316.2c-15.1,15.7-29.3,31.1-44.1,46C902,416.5,847.9,470.7,793.9,525C736.5,582.8,679,640.5,621.8,698.4
		c-3.9,3.9-6.6,9.1-9.5,13.9c-8.9,14.8-24.2,21.9-40.5,18.6c-16-3.2-27.6-15.6-30.2-32.3c-2.4-15.1,5.8-30.5,20.2-38.9
		c4.8-2.8,9.5-6.1,13.4-10C683.7,540.8,792,431.9,900.4,323.1c2-2,4.5-3.5,6.6-5c-6.7-7.1-12.2-13.2-18-19
		C844.5,254.4,800,209.8,755.5,165c-4.4-4.4-9.3-6.4-15.6-6.4c-80.3,0.1-160.5,0-240.8,0c-1.9,0-3.8,0.2-6.8,0.3
		c50.8,50.8,100.8,100.9,150.6,150.8c-50.3,50.3-99.5,99.6-148.7,148.9C401.9,366,309,272.7,215.8,179c-3.2,2.8-5.3,4.5-7.3,6.5
		c-42,42.1-83.9,84.3-125.7,126.6c-3.6,3.6-6.5,8.2-8.6,12.9c-7.4,15.9-22.5,25.4-39.2,23.8c-15.2-1.4-29.3-13.6-32.8-28.2
		c-4.1-17.3,3-32.2,17.3-43.1c13-10,24.7-21.8,36.4-33.5c49.6-49.6,99-99.4,148.5-149.1c3-3,5.8-6.1,8.5-8.9
		c93.3,93.5,186.4,186.9,279.1,279.8c18.6-18.8,36.3-36.6,54.6-55C474.6,238.8,402,166,328,91.8c3.7-0.3,5.5-0.6,7.3-0.6
		c144.4,0,288.9,0,433.3,0.3c4.3,0,9.7,2.2,12.8,5.2c72.2,72.1,144.1,144.4,216,216.7C998.8,314.7,999.9,316.1,1000,316.2z
		 M579.4,704.2c6-0.1,10.7-4.8,10.7-10.7c-0.1-5.8-5.1-10.7-10.9-10.7c-5.7,0.1-10.8,5.2-10.7,10.9
		C568.5,699.6,573.4,704.3,579.4,704.2z M49.4,310.8c0-5.9-4.8-10.8-10.6-10.8c-5.6,0-10.9,5.2-11,10.7c-0.1,5.5,5.3,10.8,10.9,10.9
		C44.5,321.6,49.4,316.6,49.4,310.8z" />
                    <path
                        d="M491.1,641.8c-91.8-92.1-184.4-185-276.5-277.4c-14.7,14.5-29,28.6-43.5,42.9c0.9,1.1,2,2.5,3.3,3.8
		c102.2,102.7,204.4,205.4,306.8,308c3.9,3.9,8.7,7.1,13.5,9.9c16.2,9.4,23.7,26.6,18.9,44.3c-4.6,16.6-20.6,28.6-38,27.8
		c-12.1-0.6-23-5.6-28.9-16.1c-9.9-17.5-24.8-30.1-38.5-43.9C298.6,630.7,188.9,520.6,79.3,410.5c-0.8-0.8-1.5-1.8-2-2.3
		c45.7-45.8,91.2-91.4,136.9-137.2c91.8,92.1,184.2,184.7,276.2,277c77.7-78,154.9-155.4,232.6-233.4c-0.5-0.6-1.4-2-2.7-3.2
		c-14.3-14.4-28.5-29.1-43.2-43.1c-5-4.8-11-8.9-17.2-12.1c-14.9-7.6-21.2-19.6-20.7-35.9c0.6-16.4,9.3-27.1,23.7-33.5
		c13.1-5.8,31.1-2.9,40.1,8.3c34,42.3,75.2,77.4,112.1,116.7c0.9,1,1.7,2.2,2.2,2.7C708.5,423.7,599.9,532.6,491.1,641.8z
		 M676.9,211.5c-5.8,0-10.7,4.8-10.8,10.6c0,5.9,4.7,10.7,10.6,10.7c6,0.1,10.7-4.6,10.8-10.6C687.5,216.4,682.8,211.5,676.9,211.5z
		 M466.6,763c0,6.3,4.5,10.7,10.7,10.5c5.9-0.1,10.3-4.5,10.4-10.4c0.1-6-4.5-10.8-10.5-10.9C471,752.2,466.6,756.7,466.6,763z" />
                </g>
            </svg>