<?xml version="1.0" encoding="utf-8"?>
<!--  Generator: Adobe Illustrator 25.4.1, SVG Export Plug-In . SVG Version: 6.00 Build 0)  -->
<svg fill="#315259" version="1.1" id="Layer_1" xmlns="http://www.w3.org/2000/svg" xmlns:xlink="http://www.w3.org/1999/xlink" x="0px" y="0px"
	 viewBox="0 0 1000 1200" style="enable-background:new 0 0 1000 1200;" xml:space="preserve">
<g>
	<path d="M979.4,219.1c0.4-1.5,0.4-4.1-1.6-7.2c-1.6-2.7-5.2-6.1-12-8.7c0,0,2-3,2-6.4c0-3.8-1.6-7.9-9.6-10.2l-3.2-10.6
		c0,0-0.4-10.9-3.2-10.9c-3.2,0-3.2,10.9-3.2,10.9l-3.2,10.6c-8,2.3-10,6.4-10,10.2c0,3.4,2.4,6.4,2.4,6.4
		c-7.2,2.7-10.4,6.1-12.4,8.7c-1.6,3-1.6,5.7-1.6,7.2c-3.2,1.5-6,3.4-8.8,5.7c-1.2-7.5-4-14.3-8-20.7c-5.6-7.9-13.2-14.7-22.4-18.9
		c0.4-1.5,0.4-4.1-1.6-6.8c-1.6-2.7-4.8-5.3-10.8-7.5c0,0,1.6-3,2-6.4c0-3.4-2-7.2-9.2-9.1l-5.6-19.6l-3.2,9.8l-2.8,9.8
		c-7.2,1.9-8.8,5.7-8.8,9.1s1.6,6.4,1.6,6.4c-6,2.3-9.2,4.9-10.8,7.5c-1.6,2.6-1.6,5.3-1.6,6.8c-9.2,4.1-16.8,10.9-22.4,18.9
		c0,0.7-0.4,1.5-0.8,1.9h-0.8v-30.2h6v-3.8h-6v-34h3.2v-20h1.6c0-2.7-0.8-4.9-2.4-6.8c-1.2-2.3-3.2-3.8-5.2-4.9c0-0.4,0-0.7-0.4-1.5
		c-0.4-0.7-1.2-1.5-2.8-1.9c0,0,0.4-0.7,0.4-1.5c0-0.7-0.4-1.9-2-2.3l-0.8-2.3l-0.8-2.7l-0.4,2.7l-0.8,2.3c-2,0.4-2.4,1.5-2.4,2.3
		s0.4,1.5,0.4,1.5c-1.2,0.4-2,1.1-2.4,1.9c-0.4,0.7-0.4,1.1-0.4,1.5c-2.4,1.1-4.4,2.7-5.6,4.9c-1.2,1.9-2,4.1-2,6.8h1.6v20h3.2v34
		h-6.4v3.8h6.4v30.2h-0.4c-2-5.3-4.4-10.2-7.2-14.7c-8-12.1-19.6-21.5-32.8-27.9c0.4-2.3,0.4-6.1-2-9.8c-2.4-3.7-7.2-7.9-16.4-11.3
		c0,0,2.8-4.1,2.8-9.1s-2.4-10.6-13.2-13.6l-4-14.3l-3.2-10.2V42c5.6-2.3,9.2-7.5,9.2-13.2c0-3.4-1.2-6.4-3.2-8.7
		c1.2,1.5,1.6,3.8,1.6,5.7c0,7.9-6.8,14.3-15.2,14.3c-4.8,0-9.2-2.3-12-5.7c2.4,4.9,7.6,8.3,14,8.3c0.8,0,2-0.4,3.2-0.4v52.9
		l-3.2,9.8l-4,14.3c-10.8,3-13.2,8.7-13.2,13.6s2.8,9.1,2.8,9.1c-9.2,3.4-14,7.5-16.4,11.3c-2.4,3.8-2.4,7.5-2,9.8
		c-13.6,6.4-24.8,15.9-32.8,27.9c-3.2,4.5-5.6,9.8-7.6,15.5h-0.4v-30.6h6v-3.8h-6v-33.6h2.8v-20.4h1.6c0-2.7-0.8-4.9-2-6.8
		c-1.2-1.9-3.2-3.8-5.6-4.5c0.4-0.4,0.4-1.1,0-1.9c-0.4-0.4-1.2-1.1-2.8-1.9c0,0,0.4-0.7,0.4-1.5c0-0.7-0.4-1.5-2-2.3l-0.8-2.3
		l-0.8-2.3l-0.8,2.3l-0.8,2.3c-1.6,0.7-2,1.5-2,2.3s0.4,1.5,0.4,1.5c-1.6,0.7-2.4,1.5-2.8,1.9c-0.4,0.7-0.4,1.5-0.4,1.9
		c-2,0.7-4,2.7-5.2,4.5c-1.2,1.9-2,4.1-2,6.8h1.6v20.4h2.8v33.6h-6v3.8h6v30.2c-0.4-0.7-0.8-1.5-1.2-2.3c-5.2-7.9-13.2-14.7-22-18.9
		c0-1.5,0-4.1-1.6-6.8s-4.8-5.3-11.2-7.5c0,0,2-3,2-6.4s-1.6-7.2-8.8-9.1l-3.2-9.8c0,0,0-9.8-2.8-9.8s-2.8,9.8-2.8,9.8l-2.8,9.8
		c-7.6,1.9-9.2,5.7-9.2,9.1s2,6.4,2,6.4c-6.4,2.3-9.6,4.9-11.2,7.5c-1.6,2.7-1.6,5.3-1.2,6.8c-9.2,4.1-16.8,10.9-22.4,18.9
		c-5.6,8.3-8.4,17.7-8.4,28.3h-7.6V181h4.4v-3h-4.4v-32.9h4.4v-3h-4.4V121h4.4v-3h-4.4V98h4.4v-2.7h-4.4V73.8h0.4V62h-0.4
		c0-1.1-0.4-1.9-0.8-2.7c-0.4-1.1-1.2-1.5-2.4-2.3c0,0,0-0.4,0-0.7c-0.4,0-0.8-0.4-1.2-0.7v-0.4c0-0.4,0-0.7-0.8-1.1l-0.4-1.1
		l-0.4-1.1V53l-0.4,1.1c-0.8,0.4-1.2,0.7-1.2,1.1l0.4,0.4c-0.8,0.4-1.2,0.7-1.2,0.7c0,0.4,0,0.7,0,0.7c-1.2,0.7-2,1.1-2.4,2.3
		c-0.8,0.7-0.8,1.5-0.8,2.7c0-1.1-0.4-1.9-0.8-2.7c-0.8-1.1-1.6-1.5-2.4-2.3c0,0,0-0.4,0-0.7c-0.4,0-0.8-0.4-1.2-0.7v-0.4
		c0-0.4,0-0.7-0.8-1.1l-0.4-1.1l-0.4-1.1l-0.4,1.1v1.1c-0.8,0.4-1.2,0.7-1.2,1.1l0.4,0.4c-0.8,0.4-1.2,0.7-1.2,0.7
		c-0.4,0.4-0.4,0.7-0.4,0.7c-0.8,0.7-1.6,1.1-2,2.3c-0.8,0.7-0.8,1.5-1.2,2.7v33.2h-4v2.7h4v20h-4v3h4V142h-4v3h4v32.9h-4v3h4v51.3
		h-7.2c0-10.6-3.2-20-8.8-28.3c-5.2-7.9-12.8-14.7-22-18.9c0-1.5,0-4.1-1.6-6.8s-4.8-5.3-11.2-7.5c0,0,2-3,2-6.4s-1.6-7.2-8.8-9.1
		l-2.8-9.8c0,0-0.4-9.8-3.2-9.8c-2.4,0-2.8,9.8-2.8,9.8l-2.8,9.8c-7.2,1.9-9.2,5.7-9.2,9.1c0.4,3.4,2,6.4,2,6.4
		c-6,2.3-9.2,4.9-11.2,7.5c-1.6,2.7-1.6,5.3-1.2,6.8c-9.2,4.1-16.8,10.9-22.4,18.9c-0.4,0.7-0.8,1.5-1.2,2.3V176h6v-3.8h-6v-33.6
		h3.2v-20.4h1.6c0-2.7-0.8-4.9-2-6.8c-1.6-1.9-3.2-3.8-5.6-4.5c0-0.4,0-1.1-0.4-1.9c-0.4-0.4-1.2-1.1-2.8-1.9c0,0,0.8-0.7,0.8-1.5
		c0-0.7-0.4-1.5-2.4-2.3l-0.8-2.3l-0.4-2.3l-1.6,4.5c-1.6,0.7-2.4,1.5-2.4,2.3c0.4,0.7,0.8,1.5,0.8,1.5c-1.6,0.7-2.4,1.5-2.8,1.9
		c-0.4,0.7-0.4,1.5-0.4,1.9c-2.4,0.7-4,2.7-5.6,4.5c-1.2,1.9-2,4.1-2,6.8h1.6v20.4h3.2v33.6h-6v3.8h6v30.6h-0.4
		c-2-5.7-4.8-10.9-8-15.5c-8-12.1-19.2-21.5-32.4-27.9c0-2.3,0-6.1-2.4-9.8s-6.8-7.9-16-11.3c0,0,2.8-4.1,2.8-9.1
		c0-4.9-2.4-10.6-13.2-13.6l-4.4-14.3l-2.8-9.8V42.4c1.2,0,2,0.4,3.2,0.4c6,0,11.2-3.4,13.6-8.3c-2.8,3.4-6.8,5.7-12,5.7
		c-8,0-14.8-6.4-14.8-14.3c0-1.9,0.4-4.1,1.2-5.7c-2,2.3-3.2,5.3-3.2,8.7c0,5.7,4,10.9,9.6,13.2v52.9l-3.2,10.2l-4.4,14.3
		c-10.4,3-13.2,8.7-13.2,13.6c0.4,4.9,2.8,9.1,2.8,9.1c-8.8,3.4-13.6,7.5-16,11.3c-2.4,3.8-2.4,7.5-2,9.8
		c-13.6,6.4-24.8,15.9-32.8,27.9c-3.2,4.5-5.6,9.5-7.6,14.7v-30.2h6v-3.8h-6v-34h3.2v-20h1.6c0-2.7-0.8-4.9-2.4-6.8
		c-1.2-2.3-3.2-3.8-5.2-4.9c0-0.4,0-0.7-0.4-1.5c-0.4-0.7-1.2-1.5-2.8-1.9c0,0,0.4-0.7,0.4-1.5c0-0.7-0.4-1.9-2-2.3l-0.8-2.3
		l-0.8-2.7l-0.8,2.7l-0.4,2.3c-2,0.4-2.4,1.5-2.4,2.3c0,0.7,0.4,1.5,0.4,1.5c-1.2,0.4-2,1.1-2.4,1.9c-0.4,0.7-0.4,1.1-0.4,1.5
		c-2.4,1.1-4.4,2.7-5.6,4.9c-1.2,1.9-2,4.1-2,6.8h1.6v20h3.2v34h-6.4v3.8h6.4v30.2h-0.8c-0.4-0.4-0.8-1.1-1.2-1.9
		c-5.6-7.9-13.2-14.7-22.4-18.9c0.4-1.5,0.4-4.1-1.2-6.8s-4.8-5.3-11.2-7.5c0,0,2-3,2-6.4s-1.6-7.2-9.2-9.1l-2.8-9.8l-2.8-9.8
		l-2.8,9.8l-3.2,9.8c-7.2,1.9-8.8,5.7-8.8,9.1s2,6.4,2,6.4c-6.4,2.3-9.6,4.9-11.2,7.5c-1.6,2.7-1.6,5.3-1.2,6.8
		c-9.2,4.1-17.2,10.9-22.4,18.9c-4,6.4-6.8,13.2-8,20.7c-2.8-2.3-6-4.1-9.2-5.7c0.4-1.5,0.4-4.1-1.6-7.2c-1.6-2.7-5.2-6.1-12-8.7
		c0,0,2-3,2-6.4c0-3.8-1.6-7.9-9.6-10.2l-3.2-10.6c0,0-0.4-10.9-3.2-10.9c-3.2,0-3.2,10.9-3.2,10.9l-3.2,10.6c-8,2.3-10,6.4-10,10.2
		c0,3.4,2,6.4,2,6.4c-6.8,2.7-10,6.1-12,8.7c-1.6,3.1-1.6,5.7-1.6,7.2c-2.8,1.5-5.6,3-8,5.3V675h493.7h0.4h506.1V235.3
		C994.6,228.5,987.8,223.3,979.4,219.1z M181.7,135.3h-4.4V118h4.4V135.3z M188.9,135.3h-4.4V118h4.4V135.3z M191.3,117.9h4.4v17.3
		h-4.4V117.9z M355.7,135.7h-4.8v-17.3h4.8V135.7z M362.5,135.7h-4.4v-17.3h4.4V135.7z M364.9,118.3h4.8v17.3h-4.8V118.3z
		 M485.4,71.1h-2v-7.9h2V71.1z M495,63.2h2.4v7.9H495V63.2z M490.2,63.2h2.4v7.9h-2.4V63.2z M489,71.1h-2.4v-7.9h2.4V71.1z
		 M500.6,71.1h-2v-7.9h2V71.1z M504.2,71.1h-2.4v-7.9h2.4V71.1z M622.2,135.7h-4.4v-17.3h4.4V135.7z M629.4,135.7h-4.8v-17.3h4.8
		V135.7z M631.8,118.3h4.4v17.3h-4.4V118.3z M796.2,135.3h-4.8V118h4.8V135.3z M803,135.3h-4.4V118h4.4V135.3z M805.4,117.9h4.4
		v17.3h-4.4V117.9z"/>
</g>
<rect y="675" width="1000" height="525"/>
</svg>
