<?xml version="1.0" encoding="utf-8"?>
<!-- Generator: Adobe Illustrator 25.4.1, SVG Export Plug-In . SVG Version: 6.00 Build 0)  -->
<svg version="1.1" id="Layer_1" xmlns="http://www.w3.org/2000/svg" xmlns:xlink="http://www.w3.org/1999/xlink" x="0px" y="0px"
	 viewBox="0 0 300 90" style="enable-background:new 0 0 300 90;" xml:space="preserve">
<style type="text/css">
	.st0{fill:#FFFFFF;}
	.st1{fill:#85A514;}
	.st2{fill:none;stroke:#85A514;stroke-linecap:round;stroke-miterlimit:10;}
</style>
<g>
	<g>
		<g>
			<g>
				<g>
					<path class="st0" d="M28.1,67.8c-0.5,0-0.9,0.1-1.2,0.4c-0.3,0.3-0.5,0.7-0.5,1.1c0,0.5,0.2,0.9,0.5,1.1s0.7,0.4,1.2,0.4
						c0.5,0,0.9-0.1,1.2-0.4c0.3-0.3,0.5-0.6,0.5-1.1c0-0.5-0.2-0.8-0.5-1.1C29,67.9,28.6,67.8,28.1,67.8z"/>
					<path class="st0" d="M23.4,67.8c-0.5,0-0.9,0.1-1.2,0.4s-0.5,0.7-0.5,1.1c0,0.5,0.2,0.9,0.5,1.1s0.7,0.4,1.2,0.4
						c0.5,0,0.9-0.1,1.2-0.4c0.3-0.3,0.5-0.6,0.5-1.1c0-0.5-0.2-0.8-0.5-1.1C24.3,67.9,23.9,67.8,23.4,67.8z"/>
					<path class="st0" d="M28.6,54.1h-3v9.1h-4.1H21h-2c0-0.2,0.1-0.3,0.1-0.5c0-0.2,0-0.4,0-0.5c0-0.9-0.2-1.8-0.5-2.6
						c-0.3-0.8-0.8-1.5-1.4-2.1c-0.6-0.6-1.3-1.1-2.1-1.4c-0.8-0.3-1.7-0.5-2.6-0.5c-0.8,0-1.6,0.1-2.3,0.4
						c-0.7,0.3-1.4,0.7-1.9,1.2c-0.6,0.5-1,1.1-1.4,1.8c-0.4,0.7-0.6,1.4-0.8,2.2c-0.3,0-0.6,0-0.9,0.1c-0.3,0.1-0.7,0.2-1,0.3
						C4,61.6,3.7,61.8,3.4,62s-0.6,0.4-0.8,0.7c-0.5,0.6-1,1.3-1.2,2.1C1.1,65.6,1,66.6,1,67.7V71h3v-3.2c0-0.6,0-1.1,0.1-1.6
						c0.1-0.5,0.3-0.9,0.5-1.2c0.4-0.5,1-0.8,1.8-0.9c0.2,0.7,0.5,1.3,0.9,1.8c0.4,0.6,0.9,1,1.4,1.4c0.5,0.4,1.1,0.7,1.8,1
						c0.7,0.2,1.3,0.3,2.1,0.3c1,0,2-0.2,2.8-0.6c0.9-0.4,1.6-1,2.2-1.7H21h0.4h7.1L28.6,54.1L28.6,54.1z M15.9,63.5
						c-0.2,0.4-0.4,0.8-0.8,1.1c-0.3,0.3-0.7,0.5-1.1,0.7c-0.4,0.2-0.9,0.3-1.4,0.3c-0.5,0-0.9-0.1-1.4-0.3s-0.8-0.4-1.1-0.7
						c-0.3-0.3-0.5-0.7-0.7-1.1c-0.2-0.4-0.3-0.9-0.3-1.4c0-0.5,0.1-1,0.3-1.4c0.2-0.4,0.4-0.8,0.7-1.1c0.3-0.3,0.7-0.6,1.1-0.8
						c0.4-0.2,0.9-0.3,1.4-0.3c0.5,0,1,0.1,1.4,0.3s0.8,0.4,1.1,0.7c0.3,0.3,0.6,0.7,0.7,1.1c0.2,0.4,0.3,0.9,0.3,1.4
						C16.1,62.6,16,63.1,15.9,63.5z"/>
					<path class="st0" d="M59.4,63.2h-1.7h-0.4h-1.9v-2.2c0-0.9-0.1-1.7-0.3-2.5c-0.2-0.8-0.5-1.4-1-1.9c-0.5-0.6-1.2-1-1.9-1.2
						c-0.7-0.3-1.6-0.4-2.6-0.4h-6.4l3.4-6.4h-3.2l-3.5,6.4c0,0.7,0.1,1.2,0.3,1.7c0.2,0.5,0.4,0.9,0.7,1.3h9c0.4,0,0.7,0.1,1.1,0.2
						c0.3,0.2,0.6,0.4,0.8,0.6c0.2,0.2,0.3,0.5,0.4,0.9c0.1,0.3,0.1,0.7,0.1,1.1v2.3h-13h-0.4H37v-9.1h-3v11.8
						c0,0.8-0.1,1.3-0.4,1.6c-0.2,0.3-0.7,0.5-1.3,0.5c-0.2,0-0.5,0-0.7,0c-0.2,0-0.5-0.1-0.8-0.2l0.2,3c0.2,0.1,0.4,0.1,0.7,0.1
						c0.3,0,0.6,0.1,0.8,0.1c1.4,0,2.5-0.4,3.2-1.1c0.7-0.8,1.1-2,1.1-3.6h1.9h0.4h18h0.4h4.7V51.8h1.4v-3h-4.4L59.4,63.2L59.4,63.2
						z"/>
					<rect x="67.5" y="48.7" class="st0" width="3" height="17.5"/>
					<path class="st0" d="M88.7,65.9H87c-0.7,0-1.3-0.1-1.8-0.2c-0.6-0.1-1-0.3-1.4-0.7c-0.3-0.3-0.6-0.7-0.7-1.1
						c-0.1-0.5-0.2-1-0.2-1.7v-6.7h-3v7.1c0,0.9,0.1,1.7,0.3,2.5c0.2,0.8,0.6,1.5,1.1,2c0.3,0.3,0.7,0.6,1,0.8s0.8,0.4,1.2,0.5
						s0.9,0.2,1.5,0.3c0.5,0.1,1.1,0.1,1.8,0.1h5V55.6h-3L88.7,65.9L88.7,65.9z"/>
					<path class="st0" d="M84.6,53.3c0.4,0.3,0.8,0.4,1.2,0.4s0.9-0.1,1.2-0.4c0.4-0.3,0.5-0.7,0.5-1.2c0-0.5-0.2-0.9-0.5-1.2
						c-0.3-0.3-0.8-0.4-1.3-0.4s-0.9,0.1-1.3,0.4c-0.3,0.3-0.5,0.7-0.5,1.2C84.1,52.6,84.3,53,84.6,53.3z"/>
					<rect x="94.5" y="49" class="st0" width="5.9" height="1.4"/>
					<rect x="95.9" y="51.3" class="st0" width="3" height="14.9"/>
					<path class="st0" d="M115,52.3c0.5,0,0.9-0.1,1.2-0.4c0.3-0.3,0.5-0.7,0.5-1.2c0-0.5-0.2-0.8-0.5-1.1c-0.3-0.3-0.7-0.4-1.2-0.4
						c-0.5,0-0.9,0.1-1.2,0.4c-0.3,0.3-0.5,0.7-0.5,1.1c0,0.5,0.2,0.9,0.5,1.2C114.2,52.1,114.6,52.3,115,52.3z"/>
					<path class="st0" d="M119.7,52.3c0.5,0,0.9-0.1,1.2-0.4c0.3-0.3,0.5-0.7,0.5-1.2c0-0.5-0.2-0.8-0.5-1.1
						c-0.3-0.3-0.7-0.4-1.2-0.4c-0.5,0-0.9,0.1-1.2,0.4c-0.3,0.3-0.5,0.7-0.5,1.1c0,0.5,0.2,0.9,0.5,1.2
						C118.9,52.1,119.3,52.3,119.7,52.3z"/>
					<path class="st0" d="M125.5,63.2h-1.7h-0.4h-1.6v-9.1h-3.6c-1.1,0-2.1,0.1-3,0.4s-1.7,0.7-2.3,1.2s-1.1,1.2-1.5,1.9
						c-0.4,0.8-0.5,1.6-0.5,2.6c0,0.6,0.1,1.2,0.3,1.7c0.2,0.5,0.4,1,0.8,1.4h-2.5h-0.4h-1.9v-9.1h-3v11.8c0,0.8-0.1,1.3-0.4,1.6
						c-0.2,0.3-0.7,0.5-1.3,0.5c-0.2,0-0.5,0-0.7,0c-0.2,0-0.5-0.1-0.8-0.2l0.2,3c0.2,0.1,0.4,0.1,0.7,0.1c0.3,0,0.6,0.1,0.8,0.1
						c1.4,0,2.5-0.4,3.2-1.1c0.7-0.8,1.1-2,1.1-3.6h1.9h0.4h13.8h0.4h4.7V51.8h1.4v-3h-4.4L125.5,63.2L125.5,63.2z M118.8,63.2h-3.1
						c-0.5-0.3-0.9-0.8-1.2-1.3c-0.3-0.5-0.4-1.1-0.4-1.8c0-0.5,0.1-0.9,0.3-1.3c0.2-0.4,0.5-0.7,0.8-1c0.3-0.3,0.7-0.5,1.1-0.6
						c0.4-0.1,0.9-0.2,1.3-0.2h1.3V63.2z"/>
					<rect x="133.6" y="48.7" class="st0" width="3" height="17.5"/>
					<path class="st0" d="M169.1,67.8c-0.5,0-0.9,0.1-1.2,0.4c-0.3,0.3-0.5,0.7-0.5,1.1c0,0.5,0.2,0.9,0.5,1.1
						c0.3,0.3,0.7,0.4,1.2,0.4c0.5,0,0.9-0.1,1.2-0.4c0.3-0.3,0.5-0.6,0.5-1.1c0-0.5-0.2-0.8-0.5-1.1
						C170,67.9,169.6,67.8,169.1,67.8z"/>
					<path class="st0" d="M173.8,67.8c-0.5,0-0.9,0.1-1.2,0.4s-0.5,0.7-0.5,1.1c0,0.5,0.2,0.9,0.5,1.1c0.3,0.3,0.7,0.4,1.2,0.4
						c0.5,0,0.9-0.1,1.2-0.4c0.3-0.3,0.5-0.6,0.5-1.1c0-0.5-0.2-0.8-0.5-1.1C174.7,67.9,174.3,67.8,173.8,67.8z"/>
					<path class="st0" d="M202.9,52.3c0.5,0,0.9-0.1,1.2-0.4c0.3-0.3,0.5-0.7,0.5-1.2c0-0.5-0.2-0.8-0.5-1.1
						c-0.3-0.3-0.7-0.4-1.2-0.4c-0.5,0-0.9,0.1-1.2,0.4c-0.3,0.3-0.5,0.7-0.5,1.1c0,0.5,0.2,0.9,0.5,1.2
						C202,52.1,202.4,52.3,202.9,52.3z"/>
					<path class="st0" d="M207.6,52.3c0.5,0,0.9-0.1,1.2-0.4c0.3-0.3,0.5-0.7,0.5-1.2c0-0.5-0.2-0.8-0.5-1.1
						c-0.3-0.3-0.7-0.4-1.2-0.4c-0.5,0-0.9,0.1-1.2,0.4c-0.3,0.3-0.5,0.7-0.5,1.1c0,0.5,0.2,0.9,0.5,1.2
						C206.7,52.1,207.1,52.3,207.6,52.3z"/>
					<path class="st0" d="M212.6,48.7v14.5h-1.7h-0.4h-3.5v-9.1h-3v9.1h-4.1h-0.4h-3.5l2.6-6.9c-1-0.9-2-1.6-3.1-2.2
						c-1.1-0.6-2.3-0.9-3.5-0.9c-0.6,0-1.2,0.1-1.8,0.2c-0.6,0.2-1.1,0.4-1.7,0.6c-0.5,0.3-1.1,0.6-1.6,1c-0.5,0.4-1,0.8-1.6,1.2
						l2.7,6.9h-3.2h-0.4h-2.3V48.7h-3v14.5h-1.7h-0.4h-3.5v-9.1h-3v9.1H166h-0.4h-1.9c0-0.2,0.1-0.3,0.1-0.5c0-0.2,0-0.4,0-0.5
						c0-0.9-0.2-1.8-0.5-2.6c-0.3-0.8-0.8-1.5-1.4-2.1c-0.6-0.6-1.3-1.1-2.1-1.4c-0.8-0.3-1.7-0.5-2.6-0.5c-0.8,0-1.6,0.1-2.3,0.4
						c-0.7,0.3-1.4,0.7-1.9,1.2c-0.6,0.5-1,1.1-1.4,1.8c-0.4,0.7-0.6,1.4-0.8,2.2c-0.3,0-0.6,0-0.9,0.1c-0.3,0.1-0.7,0.2-1,0.3
						c-0.3,0.1-0.6,0.3-0.9,0.5c-0.3,0.2-0.6,0.4-0.8,0.7c-0.5,0.6-1,1.3-1.2,2.1c-0.3,0.8-0.4,1.8-0.4,2.9V71h3v-3.2
						c0-0.6,0-1.1,0.1-1.6c0.1-0.5,0.3-0.9,0.5-1.2c0.4-0.5,1-0.8,1.8-0.9c0.2,0.7,0.5,1.3,0.9,1.8s0.9,1,1.4,1.4s1.1,0.7,1.8,1
						c0.7,0.2,1.3,0.3,2.1,0.3c1,0,2-0.2,2.8-0.6c0.9-0.4,1.6-1,2.2-1.7h3.4h0.4h10.7h0.4h7h0.4h14.8h0.4h10.7h0.4h4.7V51.8h1.4v-3
						L212.6,48.7L212.6,48.7z M160.4,63.5c-0.2,0.4-0.4,0.8-0.8,1.1c-0.3,0.3-0.7,0.5-1.1,0.7c-0.4,0.2-0.9,0.3-1.4,0.3
						c-0.5,0-0.9-0.1-1.4-0.3c-0.4-0.2-0.8-0.4-1.1-0.7c-0.3-0.3-0.5-0.7-0.7-1.1c-0.2-0.4-0.3-0.9-0.3-1.4c0-0.5,0.1-1,0.3-1.4
						c0.2-0.4,0.4-0.8,0.7-1.1c0.3-0.3,0.7-0.6,1.1-0.8c0.4-0.2,0.9-0.3,1.4-0.3c0.5,0,1,0.1,1.4,0.3s0.8,0.4,1.1,0.7
						c0.3,0.3,0.6,0.7,0.7,1.1c0.2,0.4,0.3,0.9,0.3,1.4C160.7,62.6,160.6,63.1,160.4,63.5z M193.1,63.2h-2.6l-2-5.6
						c0.5-0.4,1.1-0.7,1.6-0.9c0.5-0.2,1.1-0.3,1.7-0.3c0.6,0,1.2,0.1,1.7,0.3c0.5,0.2,1,0.5,1.6,0.9L193.1,63.2z"/>
				</g>
			</g>
		</g>
	</g>
	<g>
		<g>
			<path class="st1" d="M1.8,18.1h14.7v3.3L5.3,35h11.5v3.3H1v-3.3l11.2-13.6H1.8L1.8,18.1L1.8,18.1z"/>
			<path class="st1" d="M38,38.4h-3.8l-1.7-4.8h-8.4l-1.7,4.8h-3.8l7.5-20.3h4.4L38,38.4z M25.3,30.2h6l-3-8.4L25.3,30.2z"/>
			<path class="st1" d="M40.8,18.1h5.3c1.7,0,3.2,0.2,4.7,0.6c1.4,0.4,2.7,1.1,3.7,1.9c1,0.8,1.9,1.9,2.5,3.1
				c0.6,1.3,0.9,2.7,0.9,4.4c0,1.6-0.3,3.1-0.9,4.4c-0.6,1.3-1.4,2.3-2.4,3.2c-1,0.9-2.2,1.5-3.7,2c-1.4,0.4-3,0.7-4.7,0.7h-5.5
				V18.1z M46.1,35c1.2,0,2.3-0.1,3.3-0.4c1-0.2,1.8-0.6,2.5-1.2c0.7-0.5,1.2-1.3,1.6-2.1c0.4-0.9,0.6-1.9,0.6-3.2
				c0-1.2-0.2-2.2-0.6-3c-0.4-0.8-0.9-1.5-1.6-2.1c-0.7-0.5-1.5-0.9-2.5-1.2c-1-0.2-2.1-0.4-3.2-0.4h-1.8V35L46.1,35L46.1,35z"/>
			<path class="st1" d="M88.7,28.2c0,1.5-0.3,2.9-0.8,4.1c-0.5,1.3-1.2,2.4-2.2,3.3c-0.9,0.9-2,1.7-3.3,2.2
				c-1.3,0.5-2.7,0.8-4.2,0.8c-1.5,0-3-0.3-4.2-0.8c-1.3-0.5-2.4-1.3-3.3-2.2c-0.9-0.9-1.7-2.1-2.2-3.3c-0.5-1.3-0.8-2.7-0.8-4.1
				c0-1.5,0.3-2.8,0.8-4.1c0.5-1.3,1.2-2.4,2.2-3.3c0.9-0.9,2-1.7,3.3-2.2c1.3-0.5,2.7-0.8,4.2-0.8c1.5,0,3,0.3,4.2,0.8
				s2.4,1.3,3.3,2.2c0.9,0.9,1.7,2,2.2,3.3C88.4,25.4,88.7,26.8,88.7,28.2z M84.4,31.1c0.3-0.9,0.5-1.8,0.5-2.9c0-1.1-0.2-2-0.5-2.9
				c-0.3-0.9-0.8-1.6-1.4-2.2c-0.6-0.6-1.3-1.1-2.1-1.4c-0.8-0.3-1.7-0.5-2.7-0.5c-0.9,0-1.8,0.2-2.6,0.5c-0.8,0.3-1.5,0.8-2.1,1.4
				c-0.6,0.6-1.1,1.4-1.4,2.2c-0.3,0.9-0.5,1.8-0.5,2.9c0,1.1,0.2,2,0.5,2.9c0.3,0.9,0.8,1.6,1.4,2.2c0.6,0.6,1.3,1.1,2.1,1.4
				c0.8,0.3,1.7,0.5,2.6,0.5c1,0,1.9-0.2,2.7-0.5c0.8-0.3,1.5-0.8,2.1-1.4C83.6,32.7,84,32,84.4,31.1z"/>
			<path class="st1" d="M92.3,38.4V18.1h12.9v3.3h-9.3v4.8h8.4v3.4h-8.4v8.7L92.3,38.4L92.3,38.4z"/>
			<path class="st1" d="M135.6,28.2c0,1.6-0.3,3.1-0.9,4.5c-0.6,1.4-1.4,2.5-2.5,3.5l3.2,3.3l-1.8,1.8l-3.5-3.7
				c-1.5,0.8-3.2,1.1-5,1.1c-1.5,0-3-0.3-4.2-0.8c-1.3-0.5-2.4-1.3-3.3-2.2c-0.9-0.9-1.7-2.1-2.2-3.3c-0.5-1.3-0.8-2.7-0.8-4.1
				c0-1.5,0.3-2.8,0.8-4.1c0.5-1.3,1.2-2.4,2.2-3.3c0.9-0.9,2-1.7,3.3-2.2c1.3-0.5,2.7-0.8,4.2-0.8c1.5,0,3,0.3,4.2,0.8
				s2.4,1.3,3.3,2.2c0.9,0.9,1.7,2,2.2,3.3C135.4,25.4,135.6,26.8,135.6,28.2z M131.8,28.2c0-1.1-0.2-2-0.5-2.9
				c-0.3-0.9-0.8-1.6-1.4-2.2c-0.6-0.6-1.3-1.1-2.1-1.4s-1.7-0.5-2.7-0.5c-0.9,0-1.8,0.2-2.6,0.5c-0.8,0.3-1.5,0.8-2.1,1.4
				c-0.6,0.6-1.1,1.4-1.4,2.2c-0.3,0.9-0.5,1.8-0.5,2.9s0.2,2,0.5,2.9c0.3,0.9,0.8,1.6,1.4,2.2c0.6,0.6,1.3,1.1,2.1,1.4
				c0.8,0.3,1.7,0.5,2.6,0.5c0.9,0,1.7-0.1,2.5-0.4l-2.1-2.3l1.8-1.7l2.5,2.6c0.7-0.6,1.2-1.4,1.5-2.3
				C131.6,30.4,131.8,29.4,131.8,28.2z"/>
			<path class="st1" d="M151.7,38.1c-1.1,0.4-2.4,0.6-4,0.6c-1.6,0-2.9-0.2-4-0.6c-1.1-0.4-2-1-2.7-1.8c-0.7-0.7-1.2-1.6-1.5-2.6
				c-0.3-1-0.5-2.1-0.5-3.2V18.1h3.6v11.5c0,0.9,0.1,1.8,0.3,2.5c0.2,0.7,0.5,1.3,0.9,1.8c0.4,0.5,0.9,0.8,1.6,1.1
				c0.7,0.2,1.4,0.4,2.4,0.4c0.9,0,1.7-0.1,2.4-0.4c0.7-0.2,1.2-0.6,1.6-1.1c0.4-0.5,0.7-1.1,0.9-1.8c0.2-0.7,0.3-1.5,0.3-2.5V18.1
				h3.6v12.3c0,1.1-0.2,2.2-0.5,3.2c-0.3,1-0.8,1.9-1.5,2.6C153.7,37,152.8,37.6,151.7,38.1z"/>
			<path class="st1" d="M168.3,30.4h-3.6v8h-3.6V18.1h7.6c1.3,0,2.4,0.2,3.4,0.5c0.9,0.3,1.7,0.8,2.3,1.4c0.6,0.6,1,1.2,1.3,2
				c0.3,0.7,0.4,1.5,0.4,2.3c0,0.6-0.1,1.2-0.2,1.7c-0.1,0.6-0.4,1.1-0.7,1.6c-0.3,0.5-0.8,0.9-1.3,1.3c-0.5,0.4-1.2,0.7-1.9,1
				l5.3,8.5h-4L168.3,30.4z M164.7,21.5v5.8h3.2c0.7,0,1.3,0,1.8-0.1c0.5-0.1,1-0.2,1.4-0.5c0.4-0.2,0.7-0.5,0.9-0.9
				c0.2-0.4,0.3-0.9,0.3-1.4c0-1-0.4-1.7-1.1-2.2c-0.7-0.4-1.8-0.7-3.3-0.7L164.7,21.5L164.7,21.5z"/>
			<path class="st1" d="M197.8,38.4H194l-1.7-4.8h-8.4l-1.7,4.8h-3.8l7.5-20.3h4.4L197.8,38.4z M185.1,30.2h6l-3-8.4L185.1,30.2z"/>
			<path class="st1" d="M204.1,21.5v16.9h-3.5V18.1h5.5l7.4,16.9V18.1h3.5v20.3h-5.5L204.1,21.5z"/>
		</g>
	</g>
	<g>
		<path class="st0" d="M289.3,56.9c0,1.9-0.3,3.7-0.7,5.5c-0.5,1.9-1.3,3.8-2.3,5.5c-0.7,1.2-1.5,2.4-2.5,3.4
			c-0.6,0.7-1.3,1.4-2.1,2.1c-1.1,0.9-2.2,1.8-3.4,2.5l-0.4,0.3v8.3l1.3-0.6c2-0.9,4-2,5.7-3.4l0,0c0,0,0.1-0.1,0.1-0.1
			c2.2-1.7,4.1-3.6,5.8-5.8l0.1-0.1c1.3-1.8,2.5-3.7,3.4-5.8c0.8-1.9,1.5-3.9,1.9-5.9c0.4-1.9,0.6-3.9,0.6-5.9c0-0.1,0-8.1,0-8.1
			h-7.5L289.3,56.9z"/>
		<path class="st0" d="M277.9,37.3v34l1.5-1.3c0.5-0.4,0.9-0.8,1.3-1.3c1.6-1.8,2.8-3.8,3.6-6l0,0l0.1-0.3c0.6-1.9,1-3.8,1-5.8
			c0-0.1,0-0.2,0-0.2V37.3h-6.6L277.9,37.3z"/>
		<path class="st0" d="M248.4,37.3v7.6h17.9v33.6c-1.7-0.1-3.5-0.3-5.1-0.7c-2-0.5-3.8-1.3-5.6-2.3c-1.2-0.7-2.4-1.6-3.5-2.5
			c-0.7-0.6-1.5-1.4-2.1-2.1c-0.9-1.1-1.8-2.3-2.5-3.5c-1-1.7-1.8-3.6-2.3-5.6c-0.5-1.8-0.8-4.4-0.8-6.3l0-2.5h-7.5l0,2.5
			c0,1.7,0.2,4.6,0.6,6.7c0.4,2.1,1.1,4.1,1.9,6c0.9,2.1,2.1,4,3.4,5.8c0,0.1,0.1,0.1,0.1,0.2c1.7,2.2,3.7,4.2,5.9,5.9l0,0
			c0,0,0.1,0,0.1,0.1c1.8,1.4,3.8,2.5,5.9,3.4c1.9,0.8,3.9,1.5,6,1.9c2,0.4,4.1,0.6,6.2,0.6c0.1,0,0.2,0,0.2,0c2,0,4-0.2,6-0.6
			l0.7-0.2V37.3H248.4z"/>
		<path class="st1" d="M244.3,32.3c0.1-12.4,10.2-22.4,22.5-22.4c12.4,0,22.5,10.1,22.5,22.5l0,0.9h7.5l0-0.9c0-8-3.1-15.6-8.8-21.2
			c-5.7-5.7-13.2-8.8-21.2-8.8c-15.3,0-28.2,11.5-29.9,26.7c-0.1,1.1-0.2,2.2-0.2,3.2c0,0,0,0.1,0,0.1v16.5h7.5L244.3,32.3
			L244.3,32.3z"/>
		<rect x="289.3" y="37.3" class="st1" width="7.5" height="7.5"/>
	</g>
	<g>
		<g>
			<path class="st2" d="M281.6,30.3l-0.4,0.9c-0.6-0.1-1.3-0.2-2-0.2c-3.6,0-7.4,1.8-10.1,3.7c-1.3-1.2-3.2-1.2-4.5,0
				c-2.8-1.9-6.6-3.7-10.1-3.7c-0.7,0-1.3,0.1-2,0.2l-0.4-0.9"/>
		</g>
		<path class="st0" d="M282.1,27.8c0,0-0.1,0-0.2,0c-1.4,0-10.1,0-14.9,4.6c-0.1,0.1-0.2,0.2-0.2,0.2c-0.1-0.1-0.2-0.2-0.2-0.2
			c-4.8-4.6-13.6-4.6-14.9-4.6c-0.1,0-0.2,0-0.2,0l2.8-9.5c0,0,8.6,0,12.6,3.5c3.9-3.5,12.6-3.5,12.6-3.5L282.1,27.8z"/>
	</g>
</g>
<rect x="228.5" y="17.5" class="st0" width="0.5" height="54.5"/>
</svg>
