<?xml version="1.0" encoding="utf-8"?>
<!-- Generator: Adobe Illustrator 25.4.1, SVG Export Plug-In . SVG Version: 6.00 Build 0)  -->
<svg version="1.1" id="Layer_1" xmlns="http://www.w3.org/2000/svg" xmlns:xlink="http://www.w3.org/1999/xlink" x="0px" y="0px"
	 viewBox="0 0 225 260" style="enable-background:new 0 0 225 260;" xml:space="preserve">
<style type="text/css">
	.st0{fill:#1A2E35;}
	.st1{fill:#DD8669;}
	.st2{fill:#C66150;}
	.st3{fill:#2B454E;}
	.st4{fill:#FFAAA8;}
	.st5{fill:#375A64;}
	.st6{fill:#85A514;}
	.st7{fill:#BF0000;}
	.st8{opacity:0.15;enable-background:new    ;}
	.st9{fill:#E7E7E7;}
</style>
<g id="Character_4_">
	<g id="Top_6_">
		<g id="Arm_00000022538555558455619440000015623806769915580586_">
			<path class="st0" d="M180.6,125.2c1.4-7,8.2-12.6,16.2-0.6c4.8,7.2,6.2,17.5,4.6,24c-1.5,6.1-10,11.3-17.5,1.9
				C177.2,141.8,179.7,130,180.6,125.2z"/>
			<g id="Arm_00000129912934985719949810000005918312489802763929_">
				<path class="st1" d="M210.4,92.2c-0.9-1-2.2-1.6-3.4-2.3c-0.2-0.1-0.3-0.2-0.4-0.4c-0.1-0.1-0.1-0.3-0.1-0.5
					c0-4.9,2.7-9.7,4.5-14.2c0.9-2.3,3.2-5.8,1-8.1c-0.7-0.7-1.8-0.7-2.7-0.3c-0.9,0.4-1.5,1.2-2.1,1.9c-2.2,2.9-3.9,6.1-5.5,9.3
					c-1.4,2.8-2.9,5.6-4.3,8.5c-2.6,5-5.2,10.1-7,15.4c-0.9,2.5-1.6,5-1.8,7.7s-0.1,5.4-1.3,7.9c-1.9,3.8-18.5,23.3-18.5,23.3
					s-7.9-11.6-13.1-18.7c-13.1-18.1-18.5-28.4-40.5-27.8l6.2,38.7c0,0,16.2,20.3,29.3,34.3c9.8,10.5,15.8,15,25.8,7.6
					c5-3.7,14.3-20.6,19.1-30.6c4.8-9.9,8.1-14.9,11.1-18.9c1.8-2.4,3.6-4.7,5.4-7.1c1.7-2.2,3.2-4.7,4.2-7.2
					c0.9-2.6,1.1-3.6,1.3-5.7c0.1-1.5-3.6-4.4-4.4-5.7c-1.1-2-1.1-4.6-2.3-6.5C210.7,92.5,210.6,92.3,210.4,92.2z"/>
				<path class="st2" d="M201.4,97.6c-0.2-0.5-0.4-1.1-0.7-1.6c0,0,0,0,0-0.1c-0.2,0.6-0.4,1.2-0.6,1.7c-0.2,0.7,0.2,1.3,0.5,1.9
					c0.3,0.7,0.5,1.4,0.7,2.2c0.4,1.5,0.7,3,0.8,4.5c0.2,3.4-0.7,6.6-2.3,9.6c-0.1,0.1,0,0.5,0.2,0.3c2.4-2.6,3.4-6.2,3.3-9.7
					C203.2,103.4,202.5,100.4,201.4,97.6z"/>
				<g>
					<path class="st2" d="M168.7,140.5c0,0-7.6,8.2-7.4,16.4c0,0-3.4-8.1,5.8-18.7L168.7,140.5z"/>
				</g>
			</g>
			<g id="Fingers">
				<g>
					<path class="st1" d="M192.6,92.3c1.2-1.7,2.6-3.4,3.9-5c1.4-1.8,2.7-3.5,4.1-5.3c0.4-0.5,0.8-1.1,1.4-1.2
						c0.7,0,1.4,0.6,1.6,1.1c0.6,1.1,0.5,2.4,0.5,3.6c-0.1,1.7-0.5,3.5-1.2,5.1c-1.2,3.1-2.6,6.1-3.5,9.2
						c-1.5,5.1-10.9,11.9-10.9,11.9c0.1-3,0.1-6.1,0.2-9.1c0-1.5,0.1-3.1,0.5-4.5c0.3-1.2,0.4-1.8,1.4-3.1
						C191.2,94.1,192,93.2,192.6,92.3z"/>
					<g>
						<path class="st2" d="M196.4,87.3c1.4-2.1,2.8-4,4.3-6c1-1.5,2.9-0.5,3.4,0.9c1.7,6.4-2.5,11.2-4.4,17
							c1.1-5.8,5.1-10.7,3.7-16.7c-0.3-0.9-1.4-1.8-2.2-0.8C199.7,83.5,198.1,85.5,196.4,87.3L196.4,87.3z"/>
					</g>
					<path class="st2" d="M199.4,98.3c-0.5,0.6-0.9,1-1.6,1.2c-0.8,0.3-1.6,0.4-2.5,0.5c-0.1,0-0.1,0.2,0,0.2s0.3,0,0.4,0
						c0.9,0,1.9,0,2.7-0.3c0.4-0.2,0.8-0.4,1.1-0.7c0.2-0.1,0.6-0.5,0.6-0.7c0.1-0.2,0.1-1.5,0.1-1.9
						C200.2,97.2,199.8,97.9,199.4,98.3z"/>
				</g>
				<g>
					<path class="st1" d="M213.8,93c-1.3,0.4-2.5,1.3-3.6,2.2c-1,0.8-2.2,1.6-3.1,2.5c-0.6,0.6-1,1.3-1.4,2c-1,1.8-2.1,3.6-2.8,5.5
						c-0.3,0.7-0.5,1.5-0.1,2.1c0.2,0.3,0.5,0.5,0.8,0.7c0.9,0.4,2,0.3,2.9-0.2s1.6-1.2,2.3-2s1.3-1.6,2.1-2.2
						c0.9-0.7,1.9-1.2,2.9-1.8c1.7-1,3-2.9,3.3-4.8c0.3-1.8-0.5-4.5-2.7-4.2C214.2,92.9,214,93,213.8,93z"/>
					<g>
						<path class="st2" d="M210.3,95.2c-1.9,1.4-3.6,3-4.6,5.2c-1,2-2.5,4.1-2.7,6.3c0,0.5,0.4,0.9,0.9,1.1c1.6,0.7,3.3-0.4,4.4-1.6
							c1.6-1.9,3.3-3.3,5.6-4.3c-2.1,1.2-3.8,2.6-5.3,4.6c-1.1,1.3-3.1,2.6-5,1.8c-0.6-0.2-1.2-0.8-1.2-1.5c0.2-2.4,1.8-4.5,2.9-6.6
							C206.3,98,208.2,96.4,210.3,95.2L210.3,95.2z"/>
					</g>
				</g>
				<g>
					<path class="st1" d="M208,88.3c-0.9,0.9-1.8,1.8-2.6,2.8c-1.2,1.5-2.5,3.4-2.3,5.5c0,0.4,0.1,0.7,0.3,1
						c0.3,0.4,0.8,0.6,1.3,0.6c1.8,0.3,3.3-0.5,4.6-1.5c1.2-0.9,2.3-1.9,3.3-3c0.8-0.9,1.9-1.9,2.4-3.1c0.4-1,0.2-2.2-0.4-3
						c-0.5-0.7-1.2-1.2-2.1-1.5c-1-0.3-1.7,0-2.6,0.6C209.1,87,208.6,87.6,208,88.3z"/>
					<g>
						<path class="st2" d="M208,88.3c-1.8,2-3.8,4-4.6,6.6c-0.2,0.8-0.3,1.8,0.1,2.5c1.2,1.2,3.4,0.5,4.7-0.3c1.5-1,2.9-2.2,4.2-3.5
							c-1.1,1.4-2.5,2.7-4,3.8c-1.7,1.4-5.9,2-5.8-1.2C202.8,92.8,205.6,90.3,208,88.3L208,88.3z"/>
					</g>
				</g>
				<g>
					<path class="st1" d="M211.8,102.9c-1.4,1-2.7,2.2-3.9,3.5c-0.6,0.7-1.1,1.4-1.6,2.1s-1,1.4-1.4,2.3c-0.6,1.4,0.7,2,1.9,2.1
						c1.7,0.1,3.4-1,4.7-2.1c0.5-0.4,0.9-0.7,1.3-1.1c1.4-1,2.9-1.6,4-3c0.7-0.9,0.9-2.1,0.7-3.2c-0.1-0.5-0.2-1-0.5-1.5
						c-0.5-0.8-1.6-1-2.4-0.8c-0.4,0.1-0.8,0.3-1.1,0.5C212.9,102.2,212.4,102.5,211.8,102.9z"/>
					<g>
						<path class="st2" d="M213.5,101.8c-3,1.9-5.4,4.4-7.3,7.3c-1,1.4-2.1,3.1,0.4,3.5c1.7,0.2,3.3-0.8,4.6-1.8
							c1.7-1.6,4.1-2.3,5.7-4.1c-0.7,1-1.7,1.7-2.6,2.3c-2.5,1.5-4.5,4.4-7.7,4.1c-2.9-0.4-2.1-2.6-0.7-4.3
							C207.8,105.9,210.4,103.4,213.5,101.8L213.5,101.8z"/>
					</g>
				</g>
			</g>
			<path class="st3" d="M120,93c15.2,1.7,18.4,4.8,25.9,13.5c7.5,8.8,22.8,31.1,22.8,31.1l14.3-17.7c0,0-5.3,8.3-2.2,23
				c2.2,10.3,12,16,18.6,9.5c-18.2,19.8-22.6,26.8-32,26.8c-6.7,0-13.2-6.9-18.5-12.4c-5.2-5.5-28.9-30-28.9-30S120,93,120,93z"/>
			<path class="st0" d="M168.7,137.7c-6.6,8.4-7.6,18.2-6.2,24.7c-4.1-9.8-1.9-20.7,4-27.9L168.7,137.7z"/>
		</g>
		<g id="Head_4_">
			<g id="Head_5_">
				<g>
					<g id="XMLID_892_">
						<path class="st0" d="M72.7,82.8c0-4.1-7.4-14.3-10.6-19.8c-3.2-5.4-6.7-21.8,3.5-26.2c-1.8-8.9,10.9-16.3,22.2-18.5
							c16.1-3.2,29.4,3.8,33,13.2S119,46.6,119,46.6L72.7,82.8z"/>
						<g id="XMLID_909_">
							<path class="st1" d="M64,74.5c4.4,2.9,8.5-0.6,8.5-0.6L73,94.4c0.9,3.5,8.5,27.4,28.9,25.9c10-0.7,8.7-20.3,2-25.4l-0.1-4.4
								c0,0,2.7,0,5.9-0.5c5.5-0.8,8.9-5.1,10.6-11.1c2.7-9.5,1.9-22.7-0.5-40.9c-6.1-4.8-26.6-5.2-39.5,2.9
								c0.6,10.9-3.1,13.9-3.1,17.8c-0.8,1.6-1.7,2.5-2.4,3.1c-2,1.7-3.8-2.6-5.3-4.5c-2.6-3.3-8.5-4-11.2,1.7S60.2,72,64,74.5z"/>
						</g>
						<g id="XMLID_893_">
							<path id="XMLID_907_" class="st0" d="M97.1,55.1c0,1.4-1.1,2.5-2.5,2.5s-2.4-1.2-2.4-2.6c0-1.4,1.1-2.5,2.5-2.5
								C96,52.6,97.1,53.7,97.1,55.1z"/>
							<path id="XMLID_906_" class="st0" d="M95.4,48.4l-5.1,3.1c-0.8-1.5-0.4-3.4,1-4.2C92.7,46.5,94.6,47,95.4,48.4z"/>
							<path id="XMLID_902_" class="st0" d="M118,49.4l-5.9-1.4c0.3-1.6,1.9-2.7,3.5-2.3C117.3,46.1,118.3,47.8,118,49.4z"/>
							<path id="XMLID_895_" class="st0" d="M116.7,54.3c0,1.4-1.1,2.5-2.5,2.5s-2.4-1.2-2.4-2.6c0-1.4,1.1-2.5,2.5-2.5
								S116.7,52.8,116.7,54.3z"/>
							<path id="XMLID_894_" class="st2" d="M102.2,48l1.6,17.2l9.6-2.5C110.5,56.9,106.4,52.5,102.2,48z"/>
						</g>
					</g>
				</g>
				<g>
					<path class="st0" d="M77.8,55.9c-1.5,7.7,5.4,14.1,9.6,14.4c5.6,0.4,8-2.8,17.9-3.7c6-0.5,8,1.1,11.5,2.2
						c2.6,0.8,4.7,0.1,4.8-2.3c0.2-3.3,0.1-9.8-0.2-13.6c0.5,3,1.2,10.8,1.1,19.7c-0.1,5.6-1.5,10.9-4.3,13.7
						c-3.9,3.9-12,7.4-23.2,6c-11.1-1.4-16.8-4.4-19.1-10c-4.2-10.4-2.3-18.2-5.4-23.6C69.1,55.9,77.8,55.9,77.8,55.9z"/>
					<path class="st1" d="M104.2,70.2c-5.6,0.4-7.4,1.6-7.3,5.5c0.1,5.5,0.6,7.4,2.7,7.5c2.5,0.1,4.3,0.1,4.3-1.5
						c-0.1-1.6-0.1-3-0.7-3.5c-1-1-0.7-1.2,1.8-1.3c2.6-0.2,2.5,0.3,1.8,1.1c-0.5,0.6-0.3,2.5-0.2,3.6c0.1,1.2,0.4,1.6,3.9,1
						c3.1-0.6,2.3-3,1.8-7.7C112.1,71.5,110.6,69.7,104.2,70.2z"/>
					<path id="XMLID_321_" class="st2" d="M100.7,71.9l7.6,0.4c0,2.2-1.8,3.8-3.9,3.7C102.3,75.9,100.6,74.1,100.7,71.9z"/>
					<path class="st4" d="M101.8,73c-0.3,0-0.6,0.1-0.9,0.2c0.5,1.6,1.8,2.8,3.5,2.9c0.4,0,0.8,0,1.2-0.2
						C105.4,74.1,103.7,72.9,101.8,73z"/>
				</g>
			</g>
		</g>
		<g id="Chest_7_">
			<path class="st5" d="M153.8,260.6c-36-0.3-72-0.5-108-0.8c-0.6-25.1,0.6-43-1.4-67c-1.5-17.8-7.5-44.6-8.2-63.9
				c-0.4-11.5,1-20.3,6.5-22.7C57,100,69.3,95.1,71.8,93.3c0,0,3.3,5.1,10.3,9.1c4,2.3,9.3,4.2,15.9,4.6c6.7-1.1,5.9-12.2,5.9-12.2
				v-2.5c0.9-0.1,1.8-0.2,2.6-0.4c4.8,0.2,15,0.8,17.7,2.1c9.3,4.5,14.1,15.5,19.7,54.6c3.7,25.8,5.3,46.6,6.2,58.6
				C151.6,228.8,152.9,247,153.8,260.6z"/>
			<path class="st6" d="M105.7,137.7c0,0-6-6.5-6.6-8.8c-2.5-10.3-5.7-20.4-5.7-20.4s-5.7-0.2-12.7-3.1s-9-8.7-9.9-11.4
				c0,0,0.6-3.4,0.6-5.9c0-2.1,1.4-1.9,1.4-1.9S73,90,76.2,94c5.1,6.2,15.1,7.1,17.3,7.4c1.7,2.1,4.5,5.2,4.5,5.2s1.3-3.3,1.8-6
				c3.8-2.2,4.1-5.1,4.1-6.9l-0.1-1.4c0.4,0,0.8-0.1,1.2-0.1c0.1,0.2,0.2,0.5,0.3,0.8c0.8,2.2,2.2,6.5,0.5,10.1
				c-1.4,2.9-4.3,3.9-4.3,3.9s3.7,12.4,5.3,19.8C107.3,131.3,105.7,137.7,105.7,137.7z"/>
		</g>
		<g>
			<path class="st7" d="M54.4,30.7c-1.6-7.3,0.4-18.4,20.1-25.3c21-7.4,30.2-0.8,32.7,3.6L54.4,30.7z"/>
			<path class="st8" d="M61.6,25.4c4.4-5.1,9.2-9.9,14.3-14.4c-3.4,0.4-6.8,1.6-10.2,2c-0.3,0-0.7,0-0.8-0.2
				c-0.1-0.2-0.1-0.4-0.1-0.6c0.1-1.1,0.6-2.2,1.4-3c-12,6.8-13.1,15.6-11.8,21.6l4.1-1.7C59.5,27.8,60.6,26.6,61.6,25.4z"/>
			<path class="st9" d="M62.8,54.8c2.3-12,12.4-24.1,31.9-27.4c19.4-3.2,26.9,6.6,26.9,6.6s-1.2-5.9-3.1-12.8
				c-3.4-12.6-16.1-21-41.3-12.3C52.1,17.7,49.4,33,54.1,45.2c2.6,6.6,5.6,11.6,5.6,11.6C60.5,55.9,61.5,55.3,62.8,54.8z"/>
			<path class="st8" d="M62.8,54.8c2.3-12,12.4-24.1,31.9-27.4c0.6-0.1,1.2-0.2,1.8-0.3c-7.1,0-14.3,2.3-20.4,5.9
				c-2.5,1.5-4.8,3.1-7.6,4c-2.7,0.9-5.9,1-8.3-0.6c-2.8-1.9-3.7-5.6-3.7-9c0-2.1,0.3-4.2,0.9-6.2c-6.3,7.6-6.2,16.3-3.2,23.8
				c2.6,6.6,5.6,11.6,5.6,11.6C60.5,55.9,61.5,55.3,62.8,54.8z"/>
		</g>
		<g>
			<path class="st0" d="M71.6,172.9c3.4-0.4,8.7,1.9,10.2,11.8c1.9,12.6-0.8,22.8-9.3,24.9c-9.4,2.3-13.8-13-13.7-19.4
				C58.9,183.7,63.3,173.9,71.6,172.9z"/>
			<g id="Arm_00000078030488000401496120000009101800903591573903_">
				<path class="st1" d="M40.4,111.1c-13.1,5-16.5,10.1-20.4,24.2S8,186.8,7.1,205.5c5.1,6.9,32.3-15.5,32.3-15.5
					s7.9-30.5,10.3-40.7C52.1,139,52.6,114.4,40.4,111.1z"/>
				<path class="st2" d="M43.5,173.8c-7.4,2.9-20.5,5.4-25.2,13.5l23.1-5.2C42.4,178.4,42.3,178.5,43.5,173.8z"/>
				<path class="st2" d="M88.5,180.3c3-0.7,12.2-11.4,13.6-14.1c1.4-2.7,3.6-5.9,5.7-8.3c2.1-2.4,3-5.4,2.2-6.7
					c-0.9-1.3-1.9-1.9-3.6-0.4s-3.4,3.2-7.8,5.1c-4.4,2-9.1,3.9-10.9,9.6C85.9,171.2,88.5,180.3,88.5,180.3z"/>
				<g>
					<g>
						<path class="st1" d="M93.8,162c0,0,6.4-0.1,8.9,0.2c2.5,0.2,6.3,2.7,8.4,2.8c2.4,0.1,3.9-1.4,3-3.1c-0.9-1.7-6.5-5.1-8.5-5.9
							c-2-0.8-4.4-1.5-8.1-1.6s-8-0.6-9.3,0.1c-1.7,0.9-3.1,3.7-3.9,5.2s-3.8,6.7-5.6,9.6c-1.4,2.4-2.1,3.6-5.2,4.4
							c-3.8,0.9-19.3,3.9-29,5.4c-7.2,1.1-18.5,2.6-25.8,7.9c-7.4,5.3-10.1,9.4-11.3,16.9c-0.7,4.3-0.2,14,23.6,11.1
							c12.5-1.5,24.1-8.5,32.1-13.1c9.1-5.2,17-9.2,19.4-9.7c3.4-0.6,7.1-1.7,9.4-4.7c3-3.8,4.4-5.5,8.8-6.5
							c2.4-0.5,4.3-0.6,6.4-1.5s3.3-2.2,3.1-3.4c-0.1-1.2-1.6-1.1-1.6-1.1s0.3-0.4,0.4-1.3c0.1-0.9-0.1-1.8-0.1-1.8s0.8,0.1,1.7-0.1
							c0.9-0.2,1.6-1.8,1.7-2.8c0.1-0.9-1.9-2.8-3.2-3.3c-1.2-0.5-4.9-2.3-6-2.6C102,163.1,93.8,162,93.8,162z"/>
						<path class="st2" d="M110.5,172c0.4-0.1,0.7-0.4,1-0.9c0,0-0.8,0.3-2.6,0.1c-1.8-0.3-6.6-2-9.7-2.1c-3-0.1-6.4,0.1-7.7-0.6
							c0.9,0.6,4.2,1.1,7.7,1.4c3.5,0.3,9.5,2.1,9.5,2.1S109.6,172.2,110.5,172z"/>
						<path class="st2" d="M104.9,175.8c-1.1,0.1-6.3-0.2-8.2-0.3c-1.9-0.1-5-0.5-5-0.5s2.3,0.8,4.1,0.9c1.8,0.1,6.9,0.5,8.9,0.3
							c2-0.1,3-0.6,3.8-1.2c0,0,0.3-0.4,0.4-1.3C108.1,175.2,106,175.6,104.9,175.8z"/>
					</g>
				</g>
			</g>
			<path class="st3" d="M51.6,148.5c-1.9,7.5-6.8,27.6-6.8,27.6l26.9-3.2c-3.6,0.4-10.5,6.7-10.1,19.5c0.5,17,11,17.2,11,17.2
				s-23,5.8-35.1,7.8c-8.3,1.4-21.7,1.8-25.5,0s-7.6-3.8-6-17.9s6.9-43.1,12.4-63.9c5.4-20.8,11.4-23.8,24.3-29.3
				C55.1,111.8,54,139.1,51.6,148.5z"/>
			<path class="st0" d="M44.8,176.1c-12,3-20.8,10.2-22.8,19.5c0-11.2,8.6-20,23.9-24L44.8,176.1z"/>
		</g>
	</g>
</g>
</svg>
