<?xml version="1.0" encoding="utf-8"?>
<!-- Generator: Adobe Illustrator 25.4.1, SVG Export Plug-In . SVG Version: 6.00 Build 0)  -->
<svg
 fill="#EFEFEF"
 version="1.1" id="Layer_1" xmlns="http://www.w3.org/2000/svg" xmlns:xlink="http://www.w3.org/1999/xlink" x="0px" y="0px"
	 viewBox="0 0 500 500" style="enable-background:new 0 0 500 500;" xml:space="preserve">
<g>
	<g>
		<path d="M351.1,10.4c-0.1,2.3-0.2,4.6-0.2,6.9c0,117.3,0,234.6,0,351.9c0,2.7,0,5.5,0,8.7c-28.3,0-56,0-84.4,0c0-2.9,0-5.6,0-8.4
			c0-99.6,0-199.1,0-298.7c0-34.2,14.9-52.6,48.2-59.6c0.7-0.1,1.3-0.6,1.9-0.9C328,10.4,339.5,10.4,351.1,10.4z M321.6,350.4
			c0-104.3,0-207.5,0-310.7c-17.4,0.6-27.2,11.5-27.2,30.1c0,91.1,0,182.1,0,273.2c0,2.2,0.2,4.5,0.4,7.3c2.9,0,5.4,0,7.9,0
			C308.8,350.4,315,350.4,321.6,350.4z"/>
		<path d="M308.2,491.8c0-9.4-0.1-18.9,0-28.3c0.2-33.6,22.5-56.3,56.2-57.1c9.4-0.2,18.9,0,29.3,0c0-3.1,0-5.8,0-8.5
			c0-53,0-106,0-159c0-36.7,21.6-58.3,58.4-58.5c8.5,0,16.9,0,26.2,0c0,3.3,0,6,0,8.7c0,61.5,0,123,0,184.5
			c0,38.1-18.1,58.1-56.1,61.9c-0.7,4.8-1,9.9-2.2,14.7c-5.2,21.6-19.1,34.5-40.3,40.1c-1.7,0.5-3.4,1.1-5.1,1.6
			C352.5,491.8,330.3,491.8,308.2,491.8z M421.8,405.9c17.9,0,28.5-11.2,28.6-29.9c0.1-53.9,0-107.9,0-161.8c0-1.8-0.2-3.6-0.4-5.6
			c-1.7,0-3.1-0.2-4.4,0c-15.1,2.4-24,12.9-24,28.9c-0.1,54.6,0,109.3,0,163.9C421.6,402.7,421.8,404.1,421.8,405.9z M337,463.9
			c8.9,0,17.8,0.1,26.7,0c2.7,0,5.5-0.4,8.2-1c13.4-2.9,21.8-13.8,21.1-27.6c-10.5,0-21.1-0.6-31.6,0.1
			C346.1,436.5,335.9,448.6,337,463.9z"/>
		<path d="M10.9,377.8c0-28.2,0-56.2,0-84.8c46.8,0,93.3,0,140.2,0c0-9.3,0-17.9,0-27.5c-37.3,0-74.7,0-113,0c0-11,0-21,0-31.1
			c0-10.1-0.2-20.3,0.2-30.4c1-25.7,18.5-46.6,43.8-50.6c13-2.1,26.5-1.5,40.5-2.2c0,10.3,0,19.4,0,29c15.8,1,30,5,41.2,16.1
			c11.1,11,15.4,24.8,15.9,40.4c3.9,0.5,7.7,1,11.4,1.6c25.8,4.6,44.1,24.3,44.8,50.4c0.8,29.5,0.2,59,0.2,89
			C161.2,377.8,86.5,377.8,10.9,377.8z M179.4,265.8c0,18.5,0,37,0,56c-47.3,0-93.8,0-140.6,0c0,9.6,0,18.7,0,28.1
			c56.2,0,112.1,0,168.3,0c0-21.1,0.8-41.9-0.3-62.5C206,274.1,194.1,265.6,179.4,265.8z M151.4,236.9c-0.1-8.9-2.5-17-9.9-21.3
			c-6.2-3.7-13.8-5.8-21.1-6.8c-8.3-1.1-16.8-0.3-25.5-0.3c0-5.5,0-9.9,0-14.2c0-4.3,0-8.7,0-13c-13.1-1-25.2,6.5-27.2,18.9
			c-2,12-1.5,24.5-2.1,36.8C95.1,236.9,123.2,236.9,151.4,236.9z"/>
		<path d="M442.7,150.7c-15.8-15.7-32.1-31.8-48.2-47.8c16.1-16.2,32.1-32.3,48-48.3c15.9,16.3,31.9,32.7,47.8,49.2
			C475.3,118.6,458.9,134.7,442.7,150.7z M427.9,102.6c5,4.9,10.3,10,15.5,15c4.9-4.8,10.1-9.8,14.6-14.1c-4.9-5.7-9.7-11.2-14.8-17
			C437.7,92.3,432.7,97.6,427.9,102.6z"/>
	</g>
</g>
</svg>
