<?xml version="1.0" encoding="UTF-8" standalone="no"?>
<svg
   xmlns:dc="http://purl.org/dc/elements/1.1/"
   xmlns:cc="http://creativecommons.org/ns#"
   xmlns:rdf="http://www.w3.org/1999/02/22-rdf-syntax-ns#"
   xmlns:svg="http://www.w3.org/2000/svg"
   xmlns="http://www.w3.org/2000/svg"
   viewBox="0 0 492.70667 501.65332"
   height="501.65332"
   width="492.70667"
   xml:space="preserve"
   id="svg2"
   version="1.1"><metadata
     id="metadata8"><rdf:RDF><cc:Work
         rdf:about=""><dc:format>image/svg+xml</dc:format><dc:type
           rdf:resource="http://purl.org/dc/dcmitype/StillImage" /></cc:Work></rdf:RDF></metadata><defs
     id="defs6"><clipPath
       id="clipPath24"
       clipPathUnits="userSpaceOnUse"><path
         id="path22"
         d="m 2087.41,1845.47 v -469.03 c 0,-12.07 -7.1,-23.03 -18.13,-27.95 l -231.12,-103.32 c -20.93,-9.35 -22.79,-27.24 -3.96,-38.11 l 502.95,-290.388 c 18.84,-10.863 49.83,-9.801 66.03,2.289 l 172.08,128.229 c 13.15,9.8 20.91,25.25 20.91,41.64 v 462.92 z" /></clipPath><linearGradient
       id="linearGradient32"
       spreadMethod="pad"
       gradientTransform="matrix(-321.884,-590.845,-590.845,321.884,2414.95,1594.85)"
       gradientUnits="userSpaceOnUse"
       y2="0"
       x2="1"
       y1="0"
       x1="0"><stop
         id="stop26"
         offset="0"
         style="stop-opacity:1;stop-color:#636363" /><stop
         id="stop28"
         offset="0.494048"
         style="stop-opacity:1;stop-color:#e6e6e6" /><stop
         id="stop30"
         offset="1"
         style="stop-opacity:1;stop-color:#e6e6e6" /></linearGradient></defs><g
     transform="matrix(1.3333333,0,0,-1.3333333,0,501.65333)"
     id="g10"><g
       transform="scale(0.1)"
       id="g12"><path
         id="path14"
         style="fill:#f2f2f2;fill-opacity:1;fill-rule:nonzero;stroke:none"
         d="m 3153.09,512.18 c -16.94,0 -33.12,3.422 -45.21,10.402 l -559.65,323.688 -87.14,-50.321 c -18.8,-10.847 -42.86,-16.41 -65.68,-16.41 -18.91,0 -36.95,3.82 -50.43,11.609 L 1674.3,1179.33 c -29.76,17.19 -26.03,47.2 8.34,67.04 l 86.97,50.22 -542.22,313.6 0.09,29.21 v 0 l 44.03,25.59 c 0.05,17.74 -12.45,39.39 -27.89,48.31 l -45.02,25.99 c 9.1,1.98 18.49,2.98 27.66,2.98 16.95,0 33.13,-3.42 45.22,-10.4 l 625.48,-361.76 87.02,50.25 c 18.8,10.85 42.87,16.41 65.69,16.41 18.9,0 36.95,-3.81 50.43,-11.6 l 670.68,-388.18 c 29.76,-17.19 26.03,-47.209 -8.34,-67.049 l -86.87,-50.152 559.66,-323.68 c 26.68,-15.41 23.33,-42.328 -7.48,-60.109 l -15.76,-9.102 c -16.86,-9.726 -38.43,-14.718 -58.9,-14.718" /><path
         id="path16"
         style="fill:#404040;fill-opacity:1;fill-rule:nonzero;stroke:none"
         d="m 2126.06,1831.56 v -469.04 c 0,-12.07 -7.09,-23.02 -18.12,-27.94 l -218.73,-107.46 v 3.31 l -68.02,-4.89 0.27,-44.5 c 0.41,-6.18 4.45,-12.32 12.74,-17.11 l 502.95,-290.379 c 18.84,-10.871 49.83,-9.801 66.03,2.289 l 210.74,157.44 c 13.16,9.79 20.91,25.24 20.91,41.64 v 462.91 l -508.77,293.73" /><g
         id="g18"><g
           clip-path="url(#clipPath24)"
           id="g20"><path
             id="path34"
             style="fill:url(#linearGradient32);fill-opacity:1;fill-rule:nonzero;stroke:none"
             d="m 2087.41,1845.47 v -469.03 c 0,-12.07 -7.1,-23.03 -18.13,-27.95 l -231.12,-103.32 c -20.93,-9.35 -22.79,-27.24 -3.96,-38.11 l 502.95,-290.388 c 18.84,-10.863 49.83,-9.801 66.03,2.289 l 172.08,128.229 c 13.15,9.8 20.91,25.25 20.91,41.64 v 462.92 l -508.76,293.72" /></g></g><path
         id="path36"
         style="fill:#737373;fill-opacity:1;fill-rule:nonzero;stroke:none"
         d="M 3171.59,2669.14 1297.24,3751.29 c -22.33,12.89 -42.81,14.21 -58.85,5.98 l -0.01,0.01 -0.08,-0.05 -0.96,-0.55 -45.95,-26.7 11.64,-20.97 4.21,1.14 c -1.91,-8.8 -3.04,-18.49 -3.04,-29.19 v -768.79 -538.76 -141.67 c 0,-68.51 41.65,-148.09 93.04,-177.76 L 3171.59,971.82 c 1.22,-0.699 2.4,-1.199 3.6,-1.832 l 6.39,-32.398 52.84,30.711 c 18.52,11.98 30.2,37.679 30.2,73.859 v 141.67 538.75 768.79 c 0,68.51 -41.65,148.1 -93.03,177.77" /><path
         id="path38"
         style="fill:#cccccc;fill-opacity:1;fill-rule:nonzero;stroke:none"
         d="M 3123.37,943.922 1249.03,2026.08 c -51.39,29.67 -93.04,109.26 -93.04,177.76 v 680.43 L 3216.41,1694.69 v -680.43 c 0,-68.51 -41.65,-100.01 -93.04,-70.338" /><path
         id="path40"
         style="fill:#8c8c8c;fill-opacity:1;fill-rule:nonzero;stroke:none"
         d="m 2672.3,2008.85 -2.21,-722.95 c 0,-15.91 -11.26,-22.28 -25.21,-14.2 l -1471.13,849.04 c -11.26,26.93 -17.88,55.82 -17.88,83 v 680.6 L 2672.3,2008.85" /><path
         id="path42"
         style="fill:#404040;fill-opacity:1;fill-rule:nonzero;stroke:none"
         d="M 3216.41,1155.93 1155.99,2345.51 v 1307.55 c 0,68.51 41.65,100 93.04,70.33 L 3123.37,2641.24 c 51.39,-29.66 93.04,-109.25 93.04,-177.77 V 1155.93" /><path
         id="path44"
         style="fill:#262626;fill-opacity:1;fill-rule:nonzero;stroke:none"
         d="m 3216.41,2463.51 v -102.63 l -101.16,58.41 v 65.74 c 0,22.21 -11.84,42.66 -31.02,53.81 l -168.95,97.54 0.29,124.84 207.8,-119.95 c 51.36,-29.74 93.04,-109.27 93.04,-177.76" /><path
         id="path46"
         style="fill:#6d64ff;fill-opacity:1;fill-rule:nonzero;stroke:none"
         d="M 3081.05,1324.96 1282.86,2363.14 c -19.22,11.1 -31.07,31.61 -31.07,53.8 v 1140.27 c 0,17.57 19.04,28.56 34.25,19.77 L 3084.23,2538.79 c 19.22,-11.09 31.07,-31.6 31.07,-53.78 V 1344.73 c 0,-17.58 -19.04,-28.55 -34.25,-19.77" /><path
         id="path48"
         style="fill:#1a1a1a;fill-opacity:1;fill-rule:nonzero;stroke:none"
         d="m 2669.6,1562.55 -0.24,-90.84 -1513.49,873.78 v 1016.5 l 95.97,-55.33 v -889.68 c 0,-22.28 11.75,-42.84 31.1,-53.86 L 2669.6,1562.55" /><path
         id="path50"
         style="fill:#372fc2;fill-opacity:1;fill-rule:nonzero;stroke:none"
         d="m 2672.3,2457.61 -2.7,-895.06 -1386.66,800.57 c -19.35,11.02 -31.1,31.58 -31.1,53.86 v 889.68 l 1395.25,-805.71 c 13.94,-8.07 25.21,-27.42 25.21,-43.34" /><path
         id="path52"
         style="fill:#f2f2f2;fill-opacity:1;fill-rule:nonzero;stroke:none"
         d="m 2609.71,2619.03 -1570.11,906.5 c -6.98,4.04 -13.33,4.42 -17.92,1.75 l -42.516,-24.72 c 4.59,2.67 10.938,2.3 17.93,-1.74 L 2567.2,2594.32 c 13.94,-8.06 25.15,-27.47 25.11,-43.48 l -3.32,-1171.49 c -0.03,-7.93 -2.83,-13.52 -7.35,-16.15 l 42.51,24.71 c 4.53,2.62 7.33,8.23 7.35,16.15 l 3.33,1171.48 c 0.04,16.02 -11.17,35.43 -25.12,43.49" /><path
         id="path54"
         style="fill:#cccccc;fill-opacity:1;fill-rule:nonzero;stroke:none"
         d="m 2567.2,2594.32 c 13.94,-8.06 25.15,-27.47 25.11,-43.48 l -3.32,-1171.49 c -0.05,-15.94 -11.33,-22.45 -25.27,-14.4 l -1570.111,906.5 c -13.867,8.01 -25.156,27.56 -25.109,43.49 l 3.32,1171.48 c 0.039,16.02 11.407,22.4 25.274,14.4 L 2567.2,2594.32" /><path
         id="path56"
         style="fill:#ffaa00;fill-opacity:1;fill-rule:nonzero;stroke:none"
         d="m 2592.39,2550.78 -0.36,-134.58 -1620.51,935.62 0.359,134.58 c 0,16.08 11.262,22.35 25.195,14.48 l 1570.106,-906.5 c 13.95,-8.04 25.21,-27.52 25.21,-43.6" /><path
         id="path58"
         style="fill:#ffea00;fill-opacity:1;fill-rule:nonzero;stroke:none"
         d="m 2609.72,2619.05 -69.16,39.85 h -0.01 l -1500.94,866.64 c -6.97,3.94 -13.39,4.48 -17.87,1.79 l -42.537,-24.85 c 4.473,2.69 10.91,2.33 17.871,-1.6 l 1531.086,-883.91 39.02,-22.59 c 13.95,-8.04 25.21,-27.52 25.21,-43.6 l -0.36,-134.58 42.36,24.48 0.35,134.94 c 0.19,15.9 -11.07,35.38 -25.02,43.43" /><path
         id="path60"
         style="fill:#0d0d0d;fill-opacity:1;fill-rule:nonzero;stroke:none"
         d="m 1088.87,3385.8 c 17.89,-10.34 32.28,-35.33 32.22,-55.8 -0.06,-20.57 -14.54,-28.81 -32.43,-18.49 -17.82,10.29 -32.28,35.25 -32.22,55.81 0.06,20.48 14.61,28.77 32.43,18.48" /><path
         id="path62"
         style="fill:#0d0d0d;fill-opacity:1;fill-rule:nonzero;stroke:none"
         d="m 1183.24,3330.45 c 17.82,-10.29 32.27,-35.32 32.21,-55.8 -0.05,-20.56 -14.6,-28.77 -32.43,-18.48 -17.89,10.33 -32.27,35.24 -32.21,55.8 0.05,20.49 14.54,28.82 32.43,18.48" /><path
         id="path64"
         style="fill:#0d0d0d;fill-opacity:1;fill-rule:nonzero;stroke:none"
         d="m 1277.59,3273.57 c 17.89,-10.33 32.28,-35.32 32.22,-55.81 -0.06,-20.56 -14.53,-28.81 -32.42,-18.48 -17.83,10.29 -32.28,35.25 -32.22,55.8 0.05,20.49 14.6,28.78 32.42,18.49" /><path
         id="path66"
         style="fill:#ffffff;fill-opacity:1;fill-rule:nonzero;stroke:none"
         d="m 1082.07,3410.91 c -8.98,5.19 -17.11,5.66 -22.99,2.24 l -14.69,-8.52 c 5.88,3.41 14.02,2.93 22.99,-2.24 17.89,-10.34 32.28,-35.32 32.22,-55.81 -0.02,-10.22 -3.62,-17.38 -9.42,-20.76 l 14.69,8.54 c 5.8,3.36 9.38,10.54 9.41,20.75 0.06,20.49 -14.32,45.48 -32.21,55.8" /><path
         id="path68"
         style="fill:#e6e6e6;fill-opacity:1;fill-rule:nonzero;stroke:none"
         d="m 1067.38,3402.39 c 17.89,-10.34 32.28,-35.32 32.22,-55.81 -0.06,-20.56 -14.54,-28.81 -32.43,-18.48 -17.82,10.29 -32.27,35.24 -32.21,55.81 0.05,20.48 14.6,28.77 32.42,18.48" /><path
         id="path70"
         style="fill:#ffffff;fill-opacity:1;fill-rule:nonzero;stroke:none"
         d="m 1176.43,3355.58 c -8.99,5.19 -17.13,5.67 -23,2.26 l -14.68,-8.54 c 5.86,3.41 14,2.93 22.99,-2.25 17.83,-10.3 32.28,-35.33 32.22,-55.82 -0.03,-10.2 -3.62,-17.36 -9.42,-20.73 l 14.68,8.54 c 5.8,3.37 9.4,10.53 9.43,20.73 0.06,20.48 -14.4,45.52 -32.22,55.81" /><path
         id="path72"
         style="fill:#e6e6e6;fill-opacity:1;fill-rule:nonzero;stroke:none"
         d="m 1161.74,3347.05 c 17.83,-10.3 32.28,-35.33 32.22,-55.82 -0.06,-20.55 -14.6,-28.77 -32.43,-18.47 -17.89,10.33 -32.28,35.24 -32.22,55.8 0.06,20.49 14.54,28.81 32.43,18.49" /><path
         id="path74"
         style="fill:#ffffff;fill-opacity:1;fill-rule:nonzero;stroke:none"
         d="m 1270.79,3298.69 c -8.97,5.18 -17.11,5.65 -22.99,2.23 l -14.69,-8.53 c 5.89,3.41 14.02,2.95 23,-2.23 17.89,-10.33 32.27,-35.33 32.22,-55.81 -0.03,-10.21 -3.62,-17.38 -9.42,-20.76 l 14.68,8.54 c 5.8,3.36 9.39,10.54 9.42,20.76 0.06,20.47 -14.33,45.47 -32.22,55.8" /><path
         id="path76"
         style="fill:#e6e6e6;fill-opacity:1;fill-rule:nonzero;stroke:none"
         d="m 1256.11,3290.16 c 17.89,-10.33 32.27,-35.33 32.22,-55.81 -0.06,-20.56 -14.55,-28.81 -32.44,-18.47 -17.82,10.29 -32.27,35.24 -32.21,55.8 0.06,20.48 14.6,28.77 32.43,18.48" /><path
         id="path78"
         style="fill:#000000;fill-opacity:1;fill-rule:nonzero;stroke:none"
         d="m 1321.94,2528.84 v 190.65 L 1193.1,2603.22 Z m 148.29,-85.63 v -69.7 l -69.71,40.23 v -147.85 l -78.58,45.38 v 147.84 l -247.16,142.68 v 0.94 l 324.92,282.91 0.82,-0.49 v -401.68 l 69.71,-40.26" /><path
         id="path80"
         style="fill:#000000;fill-opacity:1;fill-rule:nonzero;stroke:none"
         d="m 1856.35,2147.76 c 24.59,26.72 37.12,74.67 37.69,143.77 -0.57,67.87 -13.1,128.92 -37.69,183.1 -24.59,54.17 -59.85,94.52 -105.71,121.01 -45.41,26.19 -80.26,26.15 -104.55,-0.12 -24.3,-26.27 -36.76,-73.28 -37.28,-141.15 0.52,-69.14 12.98,-131.04 37.28,-185.63 24.29,-54.67 59.14,-95.08 104.55,-121.27 45.86,-26.5 81.12,-26.42 105.71,0.29 z m -221.24,17.54 c -33.77,44.63 -60.07,95.94 -78.99,153.95 -18.92,58.03 -28.36,118.67 -28.36,181.87 0,101.04 19.85,166.61 59.6,196.69 39.7,30.07 94.36,24.7 164.06,-16.16 43.77,-25.27 82.5,-60.04 116.27,-104.33 33.77,-44.3 60.12,-95.45 79.03,-153.48 18.88,-58.01 28.36,-118.36 28.36,-180.96 0,-64.49 -9.48,-114.82 -28.36,-150.97 -18.91,-36.24 -45.26,-56.98 -79.03,-62.29 -33.77,-5.29 -72.5,5 -116.27,30.9 -43.73,25.27 -82.54,60.19 -116.31,104.78" /><path
         id="path82"
         style="fill:#000000;fill-opacity:1;fill-rule:nonzero;stroke:none"
         d="m 2261.91,1986.16 v 190.63 l -128.84,-116.27 z m 148.29,-85.64 v -69.7 l -69.71,40.22 v -147.83 l -78.58,45.37 v 147.84 l -247.17,142.69 v 0.92 l 324.93,282.92 0.82,-0.48 v -401.68 l 69.71,-40.27" /><path
         id="path84"
         style="fill:#f2f2f2;fill-opacity:1;fill-rule:nonzero;stroke:none"
         d="M 1150.65,926.23 11.6992,1585.07 c -17.32811,10.01 -15.15623,27.48 4.8555,39.04 l 102.9293,59.43 c 20.012,11.54 50.282,12.8 67.61,2.79 L 1326.04,1027.5 c 17.33,-10.01 15.16,-27.49 -4.85,-39.039 l -102.93,-59.43 c -20.01,-11.551 -50.28,-12.801 -67.61,-2.801" /><path
         id="path86"
         style="fill:#404040;fill-opacity:1;fill-rule:nonzero;stroke:none"
         d="m 1260.46,1036.01 v -16.09 c -0.03,-14.34 -9.47,-28.658 -28.3,-39.588 -37.91,-22.043 -99.57,-22.043 -137.81,0.039 -19.2,11.078 -28.79,25.629 -28.75,40.159 v 16.1 c -0.04,-14.54 9.55,-29.09 28.75,-40.169 38.24,-22.082 99.9,-22.082 137.81,-0.051 18.83,10.95 28.27,25.26 28.3,39.6" /><path
         id="path88"
         style="fill:#737373;fill-opacity:1;fill-rule:nonzero;stroke:none"
         d="m 1231.65,1076.25 c 38.24,-22.08 38.43,-57.8 0.51,-79.84 -37.91,-22.031 -99.57,-22.031 -137.81,0.051 -38.16,22.029 -38.36,57.739 -0.45,79.779 37.92,22.04 99.58,22.04 137.75,0.01" /><path
         id="path90"
         style="fill:#262626;fill-opacity:1;fill-rule:nonzero;stroke:none"
         d="m 1191.32,1053.09 c 15.78,-9.11 15.86,-23.84 0.23,-32.93 -15.65,-9.08 -41.07,-9.08 -56.84,0.02 -15.74,9.09 -15.83,23.82 -0.18,32.91 15.63,9.08 41.06,9.08 56.79,0" /><path
         id="path92"
         style="fill:#262626;fill-opacity:1;fill-rule:nonzero;stroke:none"
         d="m 1260.44,1035.97 v -16.09 c 0,-14.31 -9.47,-28.61 -28.32,-39.528 -19.04,-11.122 -44.08,-16.622 -69.11,-16.532 v 16.09 c 25.03,-0.101 50.07,5.41 69.11,16.531 18.85,10.919 28.32,25.229 28.32,39.529" /><path
         id="path94"
         style="fill:#404040;fill-opacity:1;fill-rule:nonzero;stroke:none"
         d="m 1198.88,1803.39 v -765.45 c -0.02,-5.28 -3.48,-10.54 -10.41,-14.57 -13.95,-8.1 -36.64,-8.1 -50.7,0.02 -7.07,4.08 -10.6,9.44 -10.59,14.78 v 765.45 c -0.01,-5.34 3.52,-10.7 10.59,-14.78 14.06,-8.12 36.75,-8.12 50.7,-0.02 6.93,4.03 10.39,9.3 10.41,14.57" /><path
         id="path96"
         style="fill:#262626;fill-opacity:1;fill-rule:nonzero;stroke:none"
         d="m 1198.85,1803.38 v -765.41 c 0,-5.3 -3.42,-10.59 -10.42,-14.58 -7.01,-4.07 -16.21,-6.11 -25.42,-6.11 v 765.5 c 9.21,-0.08 18.41,1.95 25.42,6.02 7,4.08 10.42,9.29 10.42,14.58" /><path
         id="path98"
         style="fill:#737373;fill-opacity:1;fill-rule:nonzero;stroke:none"
         d="m 1188.28,1818.2 c 14.07,-8.13 14.14,-21.27 0.19,-29.38 -13.95,-8.1 -36.64,-8.1 -50.7,0.02 -14.04,8.11 -14.12,21.24 -0.17,29.36 13.95,8.1 36.63,8.1 50.68,0" /><path
         id="path100"
         style="fill:#404040;fill-opacity:1;fill-rule:nonzero;stroke:none"
         d="m 1189.22,1847.61 v -39.22 c -0.01,-3.85 -2.54,-7.7 -7.6,-10.64 -10.2,-5.93 -26.77,-5.93 -37.05,0.01 -5.17,2.98 -7.75,6.89 -7.73,10.8 v 39.22 c -0.02,-3.91 2.56,-7.82 7.73,-10.8 10.28,-5.94 26.85,-5.94 37.05,-0.01 5.06,2.94 7.59,6.79 7.6,10.64" /><path
         id="path102"
         style="fill:#737373;fill-opacity:1;fill-rule:nonzero;stroke:none"
         d="m 1181.48,1858.42 c 10.28,-5.92 10.33,-15.53 0.14,-21.45 -10.2,-5.93 -26.77,-5.93 -37.05,0.01 -10.27,5.93 -10.32,15.53 -0.12,21.44 10.19,5.93 26.77,5.93 37.03,0" /><path
         id="path104"
         style="fill:#262626;fill-opacity:1;fill-rule:nonzero;stroke:none"
         d="m 1189.24,1847.61 v -39.26 c 0,-3.82 -2.53,-7.65 -7.65,-10.58 -5.13,-3.02 -11.81,-4.48 -18.58,-4.48 v 39.25 c 6.77,0 13.45,1.47 18.58,4.4 5.12,2.94 7.65,6.84 7.65,10.67" /><path
         id="path106"
         style="fill:#404040;fill-opacity:1;fill-rule:nonzero;stroke:none"
         d="m 260.055,1614.09 v -16.1 c -0.043,-14.33 -9.473,-28.65 -28.301,-39.59 -37.914,-22.04 -99.57,-22.04 -137.8087,0.04 -19.207,11.1 -28.7969,25.65 -28.7578,40.17 v 16.09 c -0.0391,-14.52 9.5508,-29.08 28.7539,-40.16 38.2426,-22.08 99.8986,-22.08 137.8126,-0.04 18.828,10.93 28.258,25.25 28.301,39.59" /><path
         id="path108"
         style="fill:#737373;fill-opacity:1;fill-rule:nonzero;stroke:none"
         d="m 231.23,1654.32 c 38.243,-22.08 38.442,-57.79 0.524,-79.82 -37.914,-22.04 -99.57,-22.04 -137.8126,0.04 -38.1641,22.03 -38.3633,57.74 -0.4492,79.78 37.9178,22.03 99.5738,22.03 137.7378,0" /><path
         id="path110"
         style="fill:#262626;fill-opacity:1;fill-rule:nonzero;stroke:none"
         d="m 190.914,1631.17 c 15.77,-9.11 15.856,-23.84 0.219,-32.92 -15.641,-9.09 -41.063,-9.09 -56.836,0.01 -15.742,9.09 -15.82,23.82 -0.184,32.91 15.637,9.08 41.063,9.08 56.801,0" /><path
         id="path112"
         style="fill:#262626;fill-opacity:1;fill-rule:nonzero;stroke:none"
         d="m 260.031,1614.05 v -16.1 c 0,-14.3 -9.472,-28.6 -28.32,-39.53 -19.047,-11.11 -44.078,-16.62 -69.109,-16.52 v 16.08 c 25.031,-0.09 50.062,5.42 69.109,16.54 18.848,10.91 28.32,25.22 28.32,39.53" /><path
         id="path114"
         style="fill:#404040;fill-opacity:1;fill-rule:nonzero;stroke:none"
         d="m 198.469,2381.47 v -765.45 c -0.016,-5.27 -3.489,-10.55 -10.41,-14.57 -13.954,-8.11 -36.637,-8.11 -50.711,0.02 -7.063,4.08 -10.59,9.43 -10.575,14.78 v 765.44 c -0.015,-5.34 3.512,-10.7 10.575,-14.77 14.074,-8.13 36.757,-8.13 50.711,-0.02 6.921,4.02 10.394,9.3 10.41,14.57" /><path
         id="path116"
         style="fill:#262626;fill-opacity:1;fill-rule:nonzero;stroke:none"
         d="m 198.441,2381.46 v -765.41 c 0,-5.29 -3.421,-10.6 -10.421,-14.58 -7.008,-4.07 -16.211,-6.11 -25.418,-6.11 v 765.49 c 9.207,-0.07 18.41,1.96 25.418,6.03 7,4.07 10.421,9.29 10.421,14.58" /><path
         id="path118"
         style="fill:#737373;fill-opacity:1;fill-rule:nonzero;stroke:none"
         d="m 187.863,2396.27 c 14.071,-8.12 14.145,-21.26 0.196,-29.37 -13.954,-8.11 -36.637,-8.11 -50.711,0.02 -14.035,8.1 -14.11,21.24 -0.16,29.35 13.949,8.11 36.636,8.11 50.675,0" /><path
         id="path120"
         style="fill:#404040;fill-opacity:1;fill-rule:nonzero;stroke:none"
         d="m 188.813,2425.69 v -39.22 c -0.008,-3.86 -2.543,-7.71 -7.606,-10.64 -10.191,-5.93 -26.773,-5.93 -37.051,0.01 -5.16,2.97 -7.746,6.89 -7.73,10.8 v 39.21 c -0.016,-3.9 2.57,-7.82 7.73,-10.8 10.278,-5.93 26.86,-5.93 37.051,-0.01 5.063,2.94 7.598,6.79 7.606,10.65" /><path
         id="path122"
         style="fill:#737373;fill-opacity:1;fill-rule:nonzero;stroke:none"
         d="m 181.066,2436.51 c 10.282,-5.94 10.336,-15.55 0.141,-21.47 -10.191,-5.92 -26.773,-5.92 -37.051,0.01 -10.258,5.93 -10.316,15.53 -0.121,21.46 10.195,5.92 26.77,5.92 37.031,0" /><path
         id="path124"
         style="fill:#262626;fill-opacity:1;fill-rule:nonzero;stroke:none"
         d="m 188.828,2425.69 v -39.26 c 0,-3.83 -2.523,-7.66 -7.652,-10.59 -5.129,-3.01 -11.809,-4.48 -18.574,-4.48 v 39.26 c 6.765,0 13.445,1.47 18.574,4.39 5.129,2.94 7.652,6.85 7.652,10.68" /><path
         id="path126"
         style="fill:#d9d9d9;fill-opacity:1;fill-rule:nonzero;stroke:none"
         d="m 1227.48,1639.4 -0.57,-200.11 c -0.03,-8.8 -3.14,-14.98 -8.14,-17.89 l 44.03,25.6 c 5.01,2.91 8.11,9.09 8.14,17.89 l 0.57,200.1 -44.03,-25.59" /><path
         id="path128"
         style="fill:#f2f2f2;fill-opacity:1;fill-rule:nonzero;stroke:none"
         d="M 1243.62,1713.3 83.8867,2382.87 c -7.7734,4.48 -14.8125,4.9 -19.9062,1.94 l -44.0352,-25.6 c 5.0938,2.96 12.1406,2.55 19.9102,-1.94 L 1199.59,1687.7 c 15.43,-8.92 27.94,-30.56 27.89,-48.3 l 44.03,25.59 c 0.05,17.74 -12.45,39.39 -27.89,48.31" /><path
         id="path130"
         style="fill:#e6e6e6;fill-opacity:1;fill-rule:nonzero;stroke:none"
         d="m 1199.59,1687.7 c 15.43,-8.92 27.94,-30.56 27.89,-48.3 l -0.57,-200.11 c -0.05,-17.74 -12.63,-24.84 -28.08,-15.93 L 39.1055,2092.93 c -15.4414,8.92 -27.9375,30.5 -27.8907,48.25 l 0.5665,200.09 c 0.0546,17.75 12.6289,24.92 28.0742,16 L 1199.59,1687.7" /><path
         id="path132"
         style="fill:#ff3d44;fill-opacity:1;fill-rule:nonzero;stroke:none"
         d="m 214.254,2256.59 -203.047,-108.8 0.3594,121.74 93.4456,50.06 109.242,-63" /><path
         id="path134"
         style="fill:#ff3d44;fill-opacity:1;fill-rule:nonzero;stroke:none"
         d="M 411.77,2142.52 173.91,2015.07 64.8477,2078.08 302.699,2205.53 411.77,2142.52" /><path
         id="path136"
         style="fill:#ff3d44;fill-opacity:1;fill-rule:nonzero;stroke:none"
         d="m 609.371,2028.46 -237.855,-127.45 -109.063,63.01 237.852,127.45 109.066,-63.01" /><path
         id="path138"
         style="fill:#ff3d44;fill-opacity:1;fill-rule:nonzero;stroke:none"
         d="m 806.969,1914.4 -237.852,-127.54 -109.156,63.1 237.855,127.45 109.153,-63.01" /><path
         id="path140"
         style="fill:#ff3d44;fill-opacity:1;fill-rule:nonzero;stroke:none"
         d="m 1004.58,1800.34 -237.861,-127.54 -109.156,63.09 237.855,127.46 109.162,-63.01" /><path
         id="path142"
         style="fill:#ff3d44;fill-opacity:1;fill-rule:nonzero;stroke:none"
         d="m 1202,1686.19 -237.68,-127.45 -109.16,63 237.86,127.45 106.57,-61.49 2.41,-1.51" /><path
         id="path144"
         style="fill:#ff3d44;fill-opacity:1;fill-rule:nonzero;stroke:none"
         d="m 1227.34,1601.22 -0.35,-121.57 -65.16,-34.98 -108.97,63.01 174.48,93.54" /><path
         id="path146"
         style="fill:#ff999d;fill-opacity:1;fill-rule:nonzero;stroke:none"
         d="m 258.789,2281.93 -44.355,-25.43 -109.422,63.09 44.179,25.53 109.598,-63.19" /><path
         id="path148"
         style="fill:#ff999d;fill-opacity:1;fill-rule:nonzero;stroke:none"
         d="m 456.305,2167.87 -44.27,-25.43 -109.512,63.18 44.18,25.53 109.602,-63.28" /><path
         id="path150"
         style="fill:#ff999d;fill-opacity:1;fill-rule:nonzero;stroke:none"
         d="m 653.813,2053.8 -44.266,-25.43 -109.512,63.19 44.18,25.52 109.598,-63.28" /><path
         id="path152"
         style="fill:#ff999d;fill-opacity:1;fill-rule:nonzero;stroke:none"
         d="m 851.324,1939.74 -44.269,-25.43 -109.504,63.19 44.265,25.52 109.508,-63.28" /><path
         id="path154"
         style="fill:#ff999d;fill-opacity:1;fill-rule:nonzero;stroke:none"
         d="m 1048.84,1825.77 -44.35,-25.43 -109.427,63.18 44.179,25.53 109.598,-63.28" /><path
         id="path156"
         style="fill:#ff999d;fill-opacity:1;fill-rule:nonzero;stroke:none"
         d="m 1246.27,1711.62 -44.36,-25.43 -2.32,1.51 -106.93,61.76 44.18,25.53 106.75,-61.67 2.68,-1.7" /><path
         id="path158"
         style="fill:#cc0007;fill-opacity:1;fill-rule:nonzero;stroke:none"
         d="m 1271.43,1626.47 -0.44,-121.91 -44,-25.35 0.35,121.83 44.09,25.43" /><path
         id="path160"
         style="fill:#cfaeaf;fill-opacity:1;fill-rule:nonzero;stroke:none"
         d="m 809.75,1648.05 -42.941,24.8 97.996,52.54 -55.055,-77.34 m -152.164,87.86 -88.359,51.01 237.687,127.45 40.492,-23.38 17.117,-44.2 -206.937,-110.88 m -189.684,118.3 -31.593,81.52 173.027,92.71 72.969,-42.12 -0.004,-0.01 15.262,-8.81 h -0.012 l 0.207,-0.12 -229.856,-123.17 m -70.566,182.09 -9.477,24.45 48.196,67.74 64.183,-37.05 -102.902,-55.14" /><path
         id="path162"
         style="fill:#e62e34;fill-opacity:1;fill-rule:nonzero;stroke:none"
         d="m 436.309,1935.73 -38.973,100.57 102.902,55.14 109.098,-63 -173.027,-92.71" /><path
         id="path164"
         style="fill:#e62e34;fill-opacity:1;fill-rule:nonzero;stroke:none"
         d="m 569.227,1786.92 -96.938,55.97 -4.387,11.32 229.856,123.17 39.945,-23.05 69.211,-39.96 -237.687,-127.45" /><path
         id="path166"
         style="fill:#e62e34;fill-opacity:1;fill-rule:nonzero;stroke:none"
         d="m 766.809,1672.85 -109.223,63.06 206.937,110.88 30.551,-78.87 -30.269,-42.53 -97.996,-52.54" /><path
         id="path168"
         style="fill:#e67477;fill-opacity:1;fill-rule:nonzero;stroke:none"
         d="m 737.703,1954.33 -39.945,23.05 -0.207,0.12 h 0.012 l 40.14,-23.17" /><path
         id="path170"
         style="fill:#dab7b8;fill-opacity:1;fill-rule:nonzero;stroke:none"
         d="m 847.441,1891.01 -40.371,23.31 44.254,25.42 -43.765,25.29 84.031,-48.51 -44.149,-25.51 m -149.843,86.51 -15.262,8.81 44.144,25.51 15.305,-8.84 -44.187,-25.48" /><path
         id="path172"
         style="fill:#cfaeaf;fill-opacity:1;fill-rule:nonzero;stroke:none"
         d="m 847.406,1890.99 v 0 l -40.492,23.38 0.02,0.01 0.121,-0.07 0.015,0.01 40.371,-23.31 -0.035,-0.02 m -149.84,86.52 -15.261,8.81 0.031,0.01 15.262,-8.81 -0.032,-0.01" /><path
         id="path174"
         style="fill:#e62e34;fill-opacity:1;fill-rule:nonzero;stroke:none"
         d="m 806.914,1914.37 -60.769,35.09 60.789,-35.08 -0.02,-0.01" /><path
         id="path176"
         style="fill:#e67477;fill-opacity:1;fill-rule:nonzero;stroke:none"
         d="m 807.055,1914.31 -0.121,0.07 -60.789,35.08 -48.579,28.05 0.032,0.01 44.187,25.48 65.774,-37.97 43.765,-25.29 -44.254,-25.42 -0.015,-0.01" /><path
         id="path178"
         style="fill:#bb8485;fill-opacity:1;fill-rule:nonzero;stroke:none"
         d="m 847.406,1890.99 -40.492,23.38 v 0 l 40.492,-23.38 m -149.843,86.51 -15.262,8.81 0.004,0.01 15.261,-8.81 -0.003,-0.01" /><path
         id="path180"
         style="fill:#cf2328;fill-opacity:1;fill-rule:nonzero;stroke:none"
         d="m 806.914,1914.37 -69.211,39.96 8.442,-4.87 60.769,-35.09 v 0" /><path
         id="path182"
         style="fill:#cf585b;fill-opacity:1;fill-rule:nonzero;stroke:none"
         d="m 746.145,1949.46 -8.442,4.87 -40.14,23.17 0.003,0.01 48.579,-28.05" /><path
         id="path184"
         style="fill:#ff9000;fill-opacity:1;fill-rule:nonzero;stroke:none"
         d="m 818.941,1741.53 45.352,26.36 -127.52,-179.13 -45.347,-26.36 127.515,179.13" /><path
         id="path186"
         style="fill:#ffae00;fill-opacity:1;fill-rule:nonzero;stroke:none"
         d="m 692.855,2067.09 45.348,26.35 126.09,-325.55 -45.352,-26.36 -126.086,325.56" /><path
         id="path188"
         style="fill:#ffed29;fill-opacity:1;fill-rule:nonzero;stroke:none"
         d="m 439.242,2213.5 45.352,26.36 253.609,-146.42 -45.348,-26.35 -253.613,146.41" /><path
         id="path190"
         style="fill:#ffcc00;fill-opacity:1;fill-rule:nonzero;stroke:none"
         d="M 692.855,2067.09 818.941,1741.53 691.426,1562.4 437.813,1708.82 311.77,2034.35 439.242,2213.5 692.855,2067.09" /><path
         id="path192"
         style="fill:#fff480;fill-opacity:1;fill-rule:nonzero;stroke:none"
         d="m 691.426,1571.78 -253.613,146.43 -123.692,319.44 -2.351,-3.3 126.043,-325.53 253.613,-146.42 127.515,179.13 -2.355,6.08 -125.16,-175.83" /><path
         id="path194"
         style="fill:#404040;fill-opacity:1;fill-rule:nonzero;stroke:none"
         d="m 798.961,1750.73 c 0,-10.3 -7.277,-14.45 -16.25,-9.26 -8.977,5.18 -16.25,17.73 -16.25,28.03 0,10.3 7.273,14.45 16.25,9.26 8.973,-5.18 16.25,-17.73 16.25,-28.03" /><path
         id="path196"
         style="fill:#404040;fill-opacity:1;fill-rule:nonzero;stroke:none"
         d="m 363.379,2002.3 c 0,-10.3 -7.274,-14.45 -16.254,-9.27 -8.977,5.19 -16.25,17.74 -16.25,28.04 0,10.29 7.273,14.44 16.25,9.27 8.98,-5.19 16.254,-17.74 16.254,-28.04" /><path
         id="path198"
         style="fill:#000000;fill-opacity:1;fill-rule:nonzero;stroke:none"
         d="m 410.863,1999.64 c -4.414,-2.9 -6.609,-8.59 -6.609,-17.05 0,-2.07 0.066,-3.67 0.176,-4.83 l 43.023,-6.62 c -1.777,5.69 -4.308,10.9 -7.582,15.67 -3.273,4.75 -7.336,8.53 -12.219,11.34 -6.789,3.93 -12.394,4.43 -16.789,1.49 z m 36.063,-64.03 7.668,-18.56 c -3.91,-0.76 -8.172,-0.64 -12.766,0.28 -4.57,0.95 -9.012,2.64 -13.293,5.15 -8.219,4.71 -15.379,10.81 -21.512,18.23 -6.128,7.43 -10.855,15.54 -14.195,24.28 -3.34,8.77 -5.012,17.45 -5.012,26.04 0,8.35 1.829,14.89 5.45,19.71 3.625,4.78 8.589,7.4 14.922,7.77 6.304,0.4 13.203,-1.58 20.699,-5.91 9.644,-5.57 17.707,-13.46 24.215,-23.71 6.461,-10.21 10.898,-21.83 13.289,-34.82 l -58.578,10.26 c 2.152,-5.47 5.035,-10.46 8.656,-14.94 3.648,-4.48 7.777,-8.07 12.418,-10.74 6.195,-3.57 12.191,-4.6 18.039,-3.04" /><path
         id="path200"
         style="fill:#000000;fill-opacity:1;fill-rule:nonzero;stroke:none"
         d="m 511.281,1953.76 c 3.52,1.52 7.231,2.11 11.16,1.76 3.938,-0.35 7.383,-1.34 10.375,-2.9 l -0.726,-18.66 c -5.36,3.37 -10.219,4.95 -14.547,4.73 -4.348,-0.22 -7.758,-2.06 -10.172,-5.49 -2.437,-3.46 -3.668,-7.91 -3.668,-13.36 v -38.74 l -16.613,9.6 v 84.81 l 14.836,-8.56 1.23,-20.79 c 1.907,3.56 4.633,6.06 8.125,7.6" /><path
         id="path202"
         style="fill:#000000;fill-opacity:1;fill-rule:nonzero;stroke:none"
         d="m 578.41,1915.01 c 3.535,1.51 7.227,2.1 11.18,1.75 3.91,-0.35 7.383,-1.33 10.351,-2.9 l -0.726,-18.66 c -5.336,3.37 -10.195,4.95 -14.547,4.73 -4.344,-0.22 -7.73,-2.06 -10.172,-5.49 -2.441,-3.46 -3.644,-7.91 -3.644,-13.36 v -38.74 l -16.614,9.6 v 84.81 l 14.809,-8.56 1.258,-20.79 c 1.886,3.56 4.605,6.06 8.105,7.61" /><path
         id="path204"
         style="fill:#000000;fill-opacity:1;fill-rule:nonzero;stroke:none"
         d="m 631.625,1835.53 c 2.086,-5.71 4.941,-10.93 8.57,-15.62 3.625,-4.66 7.649,-8.31 12.063,-10.83 6.898,-3.99 12.609,-4.49 17.14,-1.5 4.504,2.98 6.762,8.64 6.762,16.99 0,8.33 -2.258,16.63 -6.762,24.91 -4.531,8.26 -10.242,14.41 -17.14,18.4 -4.547,2.6 -8.57,3.6 -12.149,3 -3.586,-0.59 -6.398,-2.54 -8.484,-5.85 -2.09,-3.31 -3.117,-7.61 -3.117,-12.95 0,-5.33 1.027,-10.86 3.117,-16.55 z m -14.633,46.25 c 3.492,4.88 8.395,7.47 14.633,7.82 6.266,0.36 13.297,-1.71 21.16,-6.26 7.844,-4.55 14.832,-10.55 20.985,-18.06 6.132,-7.49 10.875,-15.65 14.281,-24.42 3.402,-8.8 5.097,-17.44 5.097,-25.9 0,-8.46 -1.695,-15.18 -5.097,-20.1 -3.406,-4.94 -8.196,-7.61 -14.367,-8 -6.2,-0.37 -13.293,1.74 -21.274,6.33 -7.711,4.48 -14.676,10.37 -20.871,17.7 -6.195,7.33 -11.055,15.43 -14.547,24.26 -3.515,8.88 -5.273,17.8 -5.273,26.84 0,8.32 1.758,14.91 5.273,19.79" /><path
         id="path206"
         style="fill:#000000;fill-opacity:1;fill-rule:nonzero;stroke:none"
         d="m 739.621,1821.93 c 3.539,1.51 7.231,2.11 11.184,1.76 3.914,-0.35 7.383,-1.34 10.347,-2.9 l -0.722,-18.67 c -5.336,3.37 -10.196,4.96 -14.547,4.73 -4.348,-0.21 -7.735,-2.06 -10.176,-5.49 -2.434,-3.45 -3.644,-7.91 -3.644,-13.36 v -38.74 l -16.614,9.6 v 84.82 l 14.809,-8.57 1.258,-20.79 c 1.886,3.57 4.613,6.07 8.105,7.61" /><path
         id="path208"
         style="fill:#f2f2f2;fill-opacity:1;fill-rule:nonzero;stroke:none"
         d="m 1733.47,329.672 -237.68,136.949 c -7.95,4.578 -19.96,5.07 -26.85,1.109 l -94.35,-54.269 -820.41,472.449 102.246,58.801 c 6.879,3.98 6.019,10.91 -1.922,15.5 L 416.813,1097.15 c -7.946,4.59 -19.961,5.09 -26.84,1.12 L 114.953,940.109 c -6.883,-3.968 -6.015,-10.91 1.922,-15.5 L 354.566,787.672 c 7.946,-4.582 19.961,-5.082 26.84,-1.113 l 41.004,23.582 820.41,-472.45 -48.9,-28.113 c -6.87,-3.976 -6.01,-10.906 1.93,-15.496 l 237.69,-136.953 c 7.94,-4.59 19.96,-5.078 26.84,-1.109 l 275.02,158.152 c 6.88,3.976 6.01,10.91 -1.93,15.5" /><path
         id="path210"
         style="fill:#c2c3c7;fill-opacity:1;fill-rule:nonzero;stroke:none"
         d="m 435.523,1075.98 c -1.949,1.12 -4.054,2.18 -6.293,3.15 l -121.386,52.32 -0.227,-79.79 L 429,999.328 c 2.246,-0.969 4.344,-2.019 6.297,-3.137 10.793,-6.23 16.98,-14.711 16.949,-24.64 l 0.231,79.789 c 0.023,9.92 -6.164,18.41 -16.954,24.64" /><path
         id="path212"
         style="fill:#808080;fill-opacity:1;fill-rule:nonzero;stroke:none"
         d="m 421.16,902.621 c -66.25,0 -113.898,15.02 -147.879,34.641 -63.933,36.91 -78.695,87.438 -79.472,90.098 l -0.231,-79.801 c 0.777,-2.649 15.543,-53.18 79.481,-90.09 33.976,-19.61 81.625,-34.637 147.879,-34.637 28.945,0 56.632,-7.023 77.16,-18.883 l 0.226,79.801 c -20.531,11.852 -48.215,18.871 -77.164,18.871" /><path
         id="path214"
         style="fill:#c7c7c7;fill-opacity:1;fill-rule:nonzero;stroke:none"
         d="m 1202.05,477.461 -0.23,-79.801 -703.722,406.289 0.226,79.801 703.726,-406.289" /><path
         id="path216"
         style="fill:#808080;fill-opacity:1;fill-rule:nonzero;stroke:none"
         d="m 1534.12,441.699 c -11.92,6.883 -28.53,10.481 -45.57,9.723 -39.52,-1.813 -74.45,-10.582 -101.83,-25.043 -12.48,-6.578 -19.18,-15.719 -19.2,-25.008 l -0.23,-79.789 c 0.03,9.277 6.73,18.43 19.21,25.008 27.37,14.461 62.3,23.23 101.83,25.039 17.04,0.762 33.65,-2.848 45.56,-9.719 1.95,-1.121 3.77,-2.332 5.45,-3.629 l 0.23,79.789 c -1.68,1.301 -3.51,2.508 -5.45,3.629" /><path
         id="path218"
         style="fill:#c7c7c7;fill-opacity:1;fill-rule:nonzero;stroke:none"
         d="m 1630.29,367.93 -0.23,-79.789 -90.72,70.14 0.23,79.789 90.72,-70.14" /><path
         id="path220"
         style="fill:#808080;fill-opacity:1;fill-rule:nonzero;stroke:none"
         d="m 1651.99,403.488 c -5.15,-22.367 -20.87,-34.898 -21.7,-35.558 l -0.23,-79.789 c 0.83,0.648 16.56,13.179 21.7,35.558 0.97,4.211 1.45,8.391 1.46,12.531 l 0.22,79.79 c -0.01,-4.141 -0.49,-8.321 -1.45,-12.532" /><path
         id="path222"
         style="fill:#dedede;fill-opacity:1;fill-rule:nonzero;stroke:none"
         d="m 1386.72,426.379 c -19.63,-10.348 -24.96,-27.027 -12.52,-40.688 l 76.76,-84.152 c -4.59,0.441 -91.85,8.82 -155.79,45.742 -33.97,19.61 -60.08,47.168 -60.29,85.551 -0.09,16.758 -12.31,32.77 -32.83,44.629 L 498.324,883.75 c -20.531,11.852 -48.215,18.871 -77.164,18.871 -66.25,0 -113.898,15.02 -147.879,34.641 -63.933,36.91 -78.695,87.438 -79.472,90.098 l 145.539,-44.188 c 23.613,-7.16 52.445,-4.051 70.254,7.348 24.828,15.94 39.855,36.2 42.656,57.66 1.488,11.29 -4.817,20.92 -16.735,27.79 -1.949,1.13 -4.054,2.19 -6.293,3.16 l -121.386,52.32 c 1.136,0.48 22.754,9.6 61.312,12.68 53.907,4.26 105.231,-7.14 141.352,-28 25.945,-14.98 44.058,-34.84 49.652,-57.27 l 15.887,-63.938 c 3.43,-13.891 14.574,-26.742 31.738,-36.641 L 1330.35,541.102 c 17.17,-9.911 39.38,-16.321 63.36,-18.262 l 110.49,-9.031 c 38.74,-3.149 73.06,-13.559 99,-28.539 36.11,-20.848 55.98,-50.551 48.79,-81.782 -5.15,-22.367 -20.87,-34.898 -21.7,-35.558 l -90.72,70.14 c -1.68,1.301 -3.51,2.508 -5.45,3.629 -11.92,6.883 -28.53,10.481 -45.57,9.723 -39.52,-1.813 -74.45,-10.582 -101.83,-25.043" /><path
         id="path224"
         style="fill:#c7c7c7;fill-opacity:1;fill-rule:nonzero;stroke:none"
         d="m 1237.34,503.328 -705.547,407.363 45.863,26.481 705.554,-407.371 -45.87,-26.473" /><path
         id="path226"
         style="fill:#808080;fill-opacity:1;fill-rule:nonzero;stroke:none"
         d="m 577.656,925.672 695.594,-401.613 9.96,5.742 -705.554,407.371 -45.863,-26.481 9.949,-5.75 35.914,20.731" /><path
         id="path228"
         style="fill:#808080;fill-opacity:1;fill-rule:nonzero;stroke:none"
         d="m 1450.96,301.539 -0.22,-79.801 c -4.59,0.442 -91.86,8.821 -155.79,45.75 -33.99,19.602 -60.08,47.172 -60.3,85.543 -0.09,16.758 -12.3,32.778 -32.83,44.629 l 0.23,79.801 c 20.52,-11.859 32.74,-27.871 32.83,-44.629 0.21,-38.383 26.32,-65.941 60.29,-85.551 63.94,-36.922 151.2,-45.301 155.79,-45.742" /><path
         id="path232"
         style="fill:#262626;fill-opacity:1;fill-rule:nonzero;stroke:none"
         d="m 3082.36,1112.38 c 9.64,-17.46 16.04,-37.06 16.77,-56.9 0.27,-7.34 -5.54,-13.51 -12.87,-14.12 -11.8,-0.97 -23.67,-0.86 -34.62,3.3 -6.12,2.33 -11.7,5.82 -17.24,9.3 l -1.21,1.09 -0.13,1.84 c 0.59,4.18 1.75,8.26 2.73,12.37 4.21,17.72 5.06,36.02 7.12,54.09 0.76,6.67 3.72,17.78 12.86,16.09 3.39,-0.63 6.99,-3.79 9.66,-5.81 3.41,-2.59 6.39,-5.72 9.03,-9.08 3,-3.81 5.56,-7.94 7.9,-12.17" /><path
         id="path234"
         style="fill:#ffb78c;fill-opacity:1;fill-rule:nonzero;stroke:none"
         d="m 2798.17,891.48 c 9.11,-0.808 18.23,0.981 27.29,2.231 8.5,1.168 17.36,1.969 24.74,6.301 4.79,2.82 8.64,6.957 12.05,11.328 6.08,7.832 10.92,16.59 14.3,25.898 1.47,4.082 2.67,8.282 3.13,12.602 0.18,1.699 0.23,3.5 -0.52,5.031 -0.78,1.578 -2.28,2.66 -3.8,3.559 -12.23,7.25 -27.63,6.269 -41.47,3.019 -12.55,-2.949 -24.7,-7.597 -36.01,-13.777 -7.76,-4.231 -15.32,-9.371 -20.23,-16.731 -4.99,-7.472 -6.44,-17.921 -3.07,-26.402 3.37,-8.488 15.39,-12.328 23.59,-13.059" /><path
         id="path268"
         style="fill:#404040;fill-opacity:1;fill-rule:nonzero;stroke:none"
         d="m 2388,288.32 -0.17,-61.601 -971.74,558.293 0.18,61.597 L 2388,288.32" /><path
         id="path270"
         style="fill:#737373;fill-opacity:1;fill-rule:nonzero;stroke:none"
         d="M 2620.93,423.68 2388,288.32 1416.27,846.609 1649.19,981.969 2620.93,423.68" /><path
         id="path272"
         style="fill:#404040;fill-opacity:1;fill-rule:nonzero;stroke:none"
         d="m 2620.88,423.641 -114.1,-66.301 h -125.6 v 204 l 239.7,-137.699" /><path
         id="path274"
         style="fill:#ffaa00;fill-opacity:1;fill-rule:nonzero;stroke:none"
         d="m 2472.02,406.371 -82.61,-48.012 c 7.71,4.5 10.34,17.352 4.13,33.332 l 82.62,48.008 c 6.2,-15.98 3.58,-28.84 -4.14,-33.328" /><path
         id="path276"
         style="fill:#ffaa00;fill-opacity:1;fill-rule:nonzero;stroke:none"
         d="m 1949.84,1462.57 82.62,48.01 c 4.98,2.9 11.61,1.95 18.22,-1.86 l -82.61,-48.01 c -6.62,3.82 -13.24,4.76 -18.23,1.86" /><path
         id="path278"
         style="fill:#ffaa00;fill-opacity:1;fill-rule:nonzero;stroke:none"
         d="m 1990.21,1433.15 82.61,48.01 403.34,-1041.461 -82.62,-48.008 -403.33,1041.459" /><path
         id="path280"
         style="fill:#ffaa00;fill-opacity:1;fill-rule:nonzero;stroke:none"
         d="m 1968.07,1460.71 82.61,48.01 c 8.64,-4.99 17.26,-14.89 22.14,-27.56 l -82.61,-48.01 c -4.88,12.68 -13.51,22.57 -22.14,27.56" /><path
         id="path282"
         style="fill:#ffea00;fill-opacity:1;fill-rule:nonzero;stroke:none"
         d="m 1968.07,1460.71 c 8.63,-4.99 17.26,-14.88 22.14,-27.56 L 2393.54,391.691 c 9.86,-25.402 -2.56,-42.882 -22.29,-31.48 l -811.24,468.371 c -19.84,11.438 -32.03,43.129 -22.14,57.137 l 407.91,573.081 c 4.98,6.98 13.65,6.9 22.29,1.91" /><path
         id="path284"
         style="fill:#ff3d44;fill-opacity:1;fill-rule:nonzero;stroke:none"
         d="m 1967.85,1409.59 c 7.84,-4.53 15.65,-13.51 20.09,-25 l 365.85,-944.699 c 8.94,-23.039 -2.32,-38.903 -20.22,-28.559 l -735.88,424.859 c -17.99,10.379 -29.04,39.129 -20.08,51.821 l 370.01,519.848 c 4.52,6.32 12.39,6.26 20.23,1.73" /><path
         id="path286"
         style="fill:#ffea00;fill-opacity:1;fill-rule:nonzero;stroke:none"
         d="m 1967.67,1368.92 c 7.2,-4.15 14.38,-12.4 18.45,-22.96 l 336.05,-867.73 c 8.22,-21.16 -2.14,-35.73 -18.58,-26.23 l -675.92,390.23 c -16.52,9.54 -26.67,35.95 -18.45,47.622 l 339.88,477.488 c 4.15,5.81 11.37,5.74 18.57,1.58" /><path
         id="path288"
         style="fill:#000000;fill-opacity:1;fill-rule:nonzero;stroke:none"
         d="m 1972.52,829.871 -26.33,15.211 c -8.34,4.816 -15.1,17.738 -15.1,28.859 v 348.869 c 0,11.12 6.76,16.23 15.1,11.41 l 26.33,-15.2 c 8.34,-4.82 15.11,-17.74 15.11,-28.86 V 841.281 c 0,-11.121 -6.77,-16.23 -15.11,-11.41" /><path
         id="path290"
         style="fill:#000000;fill-opacity:1;fill-rule:nonzero;stroke:none"
         d="m 1993.1,728.559 c 0,-21.387 -15.11,-30 -33.74,-19.239 -18.64,10.762 -33.75,36.828 -33.75,58.211 0,21.379 15.11,29.989 33.75,19.239 18.63,-10.758 33.74,-36.821 33.74,-58.211" /><path
         id="path292"
         style="fill:#6d64ff;fill-opacity:1;fill-rule:nonzero;stroke:none"
         d="m 3364.22,814.551 -28.33,-16.473 c 10.29,-0.769 18.58,1.332 25.26,5.211 l 28.33,16.461 c -6.68,-3.891 -14.97,-5.98 -25.26,-5.199" /><path
         id="path294"
         style="fill:#6d64ff;fill-opacity:1;fill-rule:nonzero;stroke:none"
         d="m 3440.26,768.199 28.32,16.449 c 9.94,5.782 19.29,15.454 27.32,30.454 l -28.33,-16.461 c -8.03,-14.993 -17.38,-24.672 -27.31,-30.442" /><path
         id="path296"
         style="fill:#6d64ff;fill-opacity:1;fill-rule:nonzero;stroke:none"
         d="m 3650.32,992.559 -248.97,144.211 c -12.54,7.25 -23.92,7.91 -32.15,3.13 l -28.33,-16.46 c 8.23,4.78 19.61,4.1 32.15,-3.13 l 248.97,-144.201 c 24.96,-14.418 45.1,-49.308 45.02,-77.91 l -0.36,-163.051 c -0.05,-14.199 -5.06,-24.199 -13.17,-28.898 l 28.33,16.461 c 8.1,4.711 13.12,14.711 13.16,28.91 l 0.37,163.039 c 0.08,28.61 -20.06,63.5 -45.02,77.899" /><path
         id="path298"
         style="fill:#a49eff;fill-opacity:1;fill-rule:nonzero;stroke:none"
         d="m 3621.99,976.109 c 24.96,-14.418 45.1,-49.308 45.02,-77.91 l -0.36,-163.051 C 3666.56,706.551 3646.28,695 3621.32,709.41 l -153.75,89.231 c -28.01,-52.282 -71.96,-39.891 -101.28,-22.969 -17.93,10.348 -29.77,21.816 -30.4,22.406 34,-2.558 46.22,26.274 50.65,47.344 l -14.18,8.187 c -24.89,14.371 -45.1,49.301 -45.02,77.903 l 0.37,163.048 c 0.08,28.6 20.42,40.12 45.31,25.75 l 248.97,-144.201" /><path
         id="path300"
         style="fill:#ffffff;fill-opacity:1;fill-rule:nonzero;stroke:none"
         d="m 3447.75,925.25 c 0,-9.941 -7.02,-13.949 -15.69,-8.949 -8.67,5.008 -15.69,17.121 -15.69,27.07 0,9.949 7.02,13.949 15.69,8.949 8.67,-5.011 15.69,-17.121 15.69,-27.07" /><path
         id="path302"
         style="fill:#ffffff;fill-opacity:1;fill-rule:nonzero;stroke:none"
         d="m 3487.41,902.359 c 0,-9.937 -7.03,-13.949 -15.7,-8.949 -8.66,5 -15.69,17.121 -15.69,27.059 0,9.953 7.03,13.953 15.69,8.953 8.67,-5 15.7,-17.121 15.7,-27.063" /><path
         id="path304"
         style="fill:#ffffff;fill-opacity:1;fill-rule:nonzero;stroke:none"
         d="m 3527.06,879.461 c 0,-9.941 -7.03,-13.949 -15.69,-8.949 -8.67,5.008 -15.69,17.117 -15.69,27.07 0,9.938 7.02,13.949 15.69,8.949 8.66,-5.011 15.69,-17.121 15.69,-27.07" /><path
         id="path306"
         style="fill:#ffffff;fill-opacity:1;fill-rule:nonzero;stroke:none"
         d="m 3566.71,856.57 c 0,-9.941 -7.02,-13.949 -15.69,-8.949 -8.66,5 -15.68,17.117 -15.68,27.059 0,9.941 7.02,13.949 15.68,8.949 8.67,-5 15.69,-17.117 15.69,-27.059" /><path
         id="path308"
         style="fill:#372fc2;fill-opacity:1;fill-rule:nonzero;stroke:none"
         d="m 3115.25,2485.03 v -65.74 l -189.6,109.47 c -5.87,3.43 -10.66,11.65 -10.66,18.39 l 0.29,89.23 168.95,-97.54 c 19.18,-11.15 31.02,-31.6 31.02,-53.81" /><path
         id="path310"
         style="fill:#737373;fill-opacity:1;fill-rule:nonzero;stroke:none"
         d="m 3361.24,2891.7 -433.35,250.29 c -2.95,1.71 -5.64,1.86 -7.58,0.74 l -35.05,-20.03 c 1.93,1.12 4.62,0.97 7.58,-0.74 l 433.34,-250.3 c 5.9,-3.4 10.63,-11.62 10.61,-18.38 l -1.4,-495.31 c -0.01,-3.36 -1.2,-5.72 -3.11,-6.83 l 35.05,20.03 c 1.91,1.11 3.1,3.48 3.11,6.83 l 1.41,495.3 c 0.02,6.78 -4.73,14.99 -10.61,18.4" /><path
         id="path312"
         style="fill:#404040;fill-opacity:1;fill-rule:nonzero;stroke:none"
         d="m 3326.18,2871.66 c 5.9,-3.4 10.63,-11.62 10.61,-18.38 l -1.4,-495.31 c -0.02,-6.73 -4.79,-9.49 -10.69,-6.09 l -433.34,250.29 c -5.87,3.39 -10.63,11.65 -10.61,18.39 l 1.39,495.3 c 0.02,6.78 4.83,9.48 10.7,6.1 l 433.34,-250.3" /><path
         id="path314"
         style="fill:#ff3d44;fill-opacity:1;fill-rule:nonzero;stroke:none"
         d="m 3221.64,2864.13 c 9.89,-5.72 19.76,-15.77 27.25,-28.81 l 24.4,-42.13 c 14.99,-26.1 14.91,-54.22 -0.18,-62.81 l -88.75,-50.45 88.17,-152.74 c 14.99,-25.95 14.92,-54.08 -0.17,-62.68 l -24.56,-13.99 c -7.54,-4.3 -17.43,-2.92 -27.33,2.8 -9.89,5.71 -19.78,15.75 -27.33,28.76 l -88.07,152.66 -88.64,-50.63 c -7.6,-4.27 -17.49,-2.89 -27.37,2.81 -9.88,5.7 -19.74,15.73 -27.29,28.74 l -24.29,42.2 c -15.1,26.01 -15.01,54.15 0.18,62.67 l 88.64,50.65 -88.06,152.53 c -15.1,26.03 -15.02,54.16 0.17,62.82 l 24.45,13.92 c 7.59,4.34 17.49,2.98 27.37,-2.72 9.87,-5.7 19.74,-15.75 27.28,-28.83 l 88.08,-152.54 88.64,50.51 c 7.6,4.34 17.51,2.97 27.41,-2.74" /><path
         id="path316"
         style="fill:#1a1a1a;fill-opacity:1;fill-rule:nonzero;stroke:none"
         d="m 742.563,3061.27 -433.34,250.3 c -2.953,1.7 -5.637,1.86 -7.582,0.74 l -35.055,-20.04 c 1.941,1.13 4.625,0.97 7.578,-0.73 l 433.348,-250.31 c 5.89,-3.39 10.633,-11.6 10.613,-18.38 l -1.406,-495.31 c -0.008,-3.35 -1.192,-5.71 -3.11,-6.82 l 35.059,20.03 c 1.914,1.11 3.102,3.47 3.109,6.83 l 1.403,495.31 c 0.019,6.76 -4.719,14.98 -10.617,18.38" /><path
         id="path318"
         style="fill:#737373;fill-opacity:1;fill-rule:nonzero;stroke:none"
         d="m 707.512,3041.23 c 5.89,-3.39 10.633,-11.6 10.613,-18.38 l -1.406,-495.31 c -0.02,-6.73 -4.789,-9.49 -10.684,-6.08 l -433.34,250.29 c -5.863,3.39 -10.632,11.65 -10.621,18.39 l 1.406,495.31 c 0.02,6.77 4.825,9.47 10.684,6.09 l 433.348,-250.31" /><path
         id="path320"
         style="fill:#ffffff;fill-opacity:1;fill-rule:nonzero;stroke:none"
         d="m 482.285,2846.93 c 26.93,-15.55 48.82,-3.07 48.906,27.85 0.09,30.94 -21.66,68.61 -48.582,84.15 -26.91,15.54 -48.804,3.07 -48.894,-27.87 -0.082,-30.92 21.668,-68.6 48.57,-84.13 z m 147.434,-57.06 -36.653,16.4 c -2.753,-10.58 -6.961,-19.64 -12.445,-27.01 l 22.891,-46.44 -34.508,-19.62 -28.754,43.07 c -9.195,-0.92 -19.191,0.01 -29.777,3.04 l -4.282,-39.72 -48.636,28.13 -3.985,44.46 c -10.574,9.26 -20.543,19.83 -29.679,31.38 l -28.938,-9.75 -34.25,59.39 23.117,19.83 c -5.386,13.67 -9.539,27.56 -12.199,41.27 l -36.621,25.95 0.195,55.87 36.664,-16.47 c 2.774,10.58 6.985,19.64 12.473,27.01 l -22.879,46.43 34.547,19.6 28.738,-43.12 c 9.133,0.93 19.094,-0.02 29.629,-3 l 4.262,39.72 48.613,-28.07 4.024,-44.51 c 10.57,-9.23 20.543,-19.78 29.675,-31.33 l 28.946,9.77 34.265,-59.37 -23.097,-19.85 c 5.386,-13.67 9.531,-27.54 12.218,-41.3 l 36.622,-25.91 -0.176,-55.85" /><path
         id="path322"
         style="fill:#f2f2f2;fill-opacity:1;fill-rule:nonzero;stroke:none"
         d="m 649.203,2369.14 -396.555,229.09 c -7.097,4.09 -6.207,11.25 1.985,15.97 l 42.14,24.34 c 8.192,4.73 20.586,5.24 27.68,1.14 l 396.559,-229.09 c 7.093,-4.1 6.199,-11.25 -1.989,-15.98 l -42.144,-24.33 c -8.188,-4.73 -20.578,-5.25 -27.676,-1.14" /></g></g></svg>