<?xml version="1.0" encoding="utf-8"?>
<!-- Generator: Adobe Illustrator 25.4.1, SVG Export Plug-In . SVG Version: 6.00 Build 0)  -->
<svg version="1.1" id="Layer_1" xmlns="http://www.w3.org/2000/svg" xmlns:xlink="http://www.w3.org/1999/xlink" x="0px" y="0px"
	 viewBox="0 0 1920 500" style="enable-background:new 0 0 1920 500;" xml:space="preserve">
<style type="text/css">
	.st0{fill:#233b41;}
</style>
<g>
	<path class="st0" d="M1919.1,499.9V373.2c-10-10.4-23.1-18.4-39.2-24.8c0.8-2.3,0.8-6.3-3.1-10.9c-3.1-4-10-9.2-23.1-13.2
		c0,0,3.8-4.6,3.8-9.8c0-5.8-3.1-12.1-18.5-15.5l-6.2-16.1c0,0-0.8-16.7-6.2-16.7c-6.2,0-6.2,16.7-6.2,16.7l-6.2,16.1
		c-15.4,3.5-19.2,9.8-19.2,15.5c0,5.2,4.6,9.8,4.6,9.8c-13.8,4-20,9.2-23.8,13.2c-3.1,4.6-3.1,8.6-3.1,10.9
		c-6.2,2.3-11.5,5.2-16.9,8.6c-2.3-11.5-7.7-21.9-15.4-31.7c-10.8-12.1-25.4-22.5-43.1-28.8c0.8-2.3,0.8-6.3-3.1-10.4
		c-3.1-4-9.2-8.1-20.8-11.5c0,0,3.1-4.6,3.8-9.8c0-5.2-3.8-10.9-17.7-13.8l-10.8-29.9l-6.2,15l-5.4,15c-13.8,2.9-16.9,8.6-16.9,13.8
		c0,5.2,3.1,9.8,3.1,9.8c-11.5,3.5-17.7,7.5-20.8,11.5c-3.1,4-3.1,8.1-3.1,10.4c-17.7,6.3-32.3,16.7-43.1,28.8
		c0,1.2-0.8,2.3-1.5,2.9h-1.5v-46.1h11.5v-5.8h-11.5v-51.8h6.2v-30.5h3.1c0-4-1.5-7.5-4.6-10.4c-2.3-3.5-6.2-5.8-10-7.5
		c0-0.6,0-1.2-0.8-2.3c-0.8-1.1-2.3-2.3-5.4-2.9c0,0,0.8-1.1,0.8-2.3c0-1.2-0.8-2.9-3.8-3.5l-1.5-3.5l-1.5-4l-0.8,4l-1.5,3.5
		c-3.8,0.6-4.6,2.3-4.6,3.5c0,1.2,0.8,2.3,0.8,2.3c-2.3,0.6-3.8,1.7-4.6,2.9c-0.8,1.2-0.8,1.7-0.8,2.3c-4.6,1.7-8.5,4-10.8,7.5
		c-2.3,2.9-3.8,6.3-3.8,10.4h3.1v30.5h6.2v51.8h-12.3v5.8h12.3v46.1h-0.8c-3.8-8.1-8.5-15.5-13.8-22.5
		c-15.4-18.4-37.7-32.8-63.1-42.6c0.8-3.5,0.8-9.2-3.8-15c-4.6-5.8-13.8-12.1-31.5-17.3c0,0,5.4-6.3,5.4-13.8
		c0-7.5-4.6-16.1-25.4-20.7l-7.7-21.9l-6.2-15.5V78.4c10.8-3.5,17.7-11.5,17.7-20.1c0-5.2-2.3-9.8-6.2-13.2c2.3,2.3,3.1,5.8,3.1,8.6
		c0,12.1-13.1,21.9-29.2,21.9c-9.2,0-17.7-3.5-23.1-8.6c4.6,7.5,14.6,12.7,26.9,12.7c1.5,0,3.8-0.6,6.2-0.6v80.6l-6.2,15l-7.7,21.9
		c-20.8,4.6-25.4,13.2-25.4,20.7c0,7.5,5.4,13.8,5.4,13.8c-17.7,5.2-26.9,11.5-31.5,17.3c-4.6,5.8-4.6,11.5-3.8,15
		c-26.2,9.8-47.7,24.2-63.1,42.6c-6.2,6.9-10.8,15-14.6,23.6h-0.8v-46.6h11.5V277h-11.5v-51.2h5.4v-31.1h3.1c0-4-1.5-7.5-3.8-10.4
		c-2.3-2.9-6.2-5.8-10.8-6.9c0.8-0.6,0.8-1.7,0-2.9c-0.8-0.6-2.3-1.7-5.4-2.9c0,0,0.8-1.2,0.8-2.3c0-1.2-0.8-2.3-3.8-3.5l-1.5-3.5
		l-1.5-3.5l-1.5,3.5l-1.5,3.5c-3.1,1.1-3.8,2.3-3.8,3.5c0,1.1,0.8,2.3,0.8,2.3c-3.1,1.2-4.6,2.3-5.4,2.9c-0.8,1.2-0.8,2.3-0.8,2.9
		c-3.8,1.2-7.7,4-10,6.9c-2.3,2.9-3.8,6.3-3.8,10.4h3.1v31.1h5.4V277h-11.5v5.8h11.5v46.1c-0.8-1.2-1.5-2.3-2.3-3.5
		c-10-12.1-25.4-22.5-42.3-28.8c0-2.3,0-6.3-3.1-10.4c-3.1-4-9.2-8.1-21.5-11.5c0,0,3.8-4.6,3.8-9.8c0-5.2-3.1-10.9-16.9-13.8
		l-6.2-15c0,0,0-15-5.4-15c-5.4,0-5.4,15-5.4,15l-5.4,15c-14.6,2.9-17.7,8.6-17.7,13.8c0,5.2,3.8,9.8,3.8,9.8
		c-12.3,3.5-18.5,7.5-21.5,11.5c-3.1,4-3.1,8.1-2.3,10.4c-17.7,6.3-32.3,16.7-43.1,28.8c-10.8,12.7-16.2,27.1-16.2,43.2h-14.6v-78.3
		h8.5v-4.6h-8.5v-50.1h8.5V231h-8.5v-32.2h8.5v-4.6h-8.5v-30.5h8.5v-4h-8.5v-32.8h0.8v-17.9h-0.8c0-1.7-0.8-2.9-1.5-4
		c-0.8-1.7-2.3-2.3-4.6-3.5c0,0,0-0.6,0-1.2c-0.8,0-1.5-0.6-2.3-1.2v-0.6c0-0.6,0-1.1-1.5-1.7l-0.8-1.7l-0.8-1.7v1.7l-0.8,1.7
		c-1.5,0.6-2.3,1.2-2.3,1.7l0.8,0.6c-1.5,0.6-2.3,1.2-2.3,1.2c0,0.6,0,1.2,0,1.2c-2.3,1.1-3.8,1.7-4.6,3.5c-1.5,1.1-1.5,2.3-1.5,4
		c0-1.7-0.8-2.9-1.5-4c-1.5-1.7-3.1-2.3-4.6-3.5c0,0,0-0.6,0-1.2c-0.8,0-1.5-0.6-2.3-1.2v-0.6c0-0.6,0-1.1-1.5-1.7l-0.8-1.7
		l-0.8-1.7l-0.8,1.7v1.7c-1.5,0.6-2.3,1.2-2.3,1.7l0.8,0.6c-1.5,0.6-2.3,1.2-2.3,1.2c-0.8,0.6-0.8,1.2-0.8,1.2
		c-1.5,1.1-3.1,1.7-3.8,3.5c-1.5,1.1-1.5,2.3-2.3,4v50.7h-7.7v4h7.7v30.5h-7.7v4.6h7.7V231h-7.7v4.6h7.7v50.1h-7.7v4.6h7.7v78.3
		h-13.8c0-16.1-6.2-30.5-16.9-43.2c-10-12.1-24.6-22.5-42.3-28.8c0-2.3,0-6.3-3.1-10.4c-3.1-4-9.2-8.1-21.5-11.5
		c0,0,3.8-4.6,3.8-9.8c0-5.2-3.1-10.9-16.9-13.8l-5.4-15c0,0-0.8-15-6.2-15c-4.6,0-5.4,15-5.4,15l-5.4,15
		c-13.8,2.9-17.7,8.6-17.7,13.8c0.8,5.2,3.8,9.8,3.8,9.8c-11.5,3.5-17.7,7.5-21.5,11.5c-3.1,4-3.1,8.1-2.3,10.4
		c-17.7,6.3-32.3,16.7-43.1,28.8c-0.8,1.2-1.5,2.3-2.3,3.5v-46.1h11.5V277h-11.5v-51.2h6.2v-31.1h3.1c0-4-1.5-7.5-3.8-10.4
		c-3.1-2.9-6.2-5.8-10.8-6.9c0-0.6,0-1.7-0.8-2.9c-0.8-0.6-2.3-1.7-5.4-2.9c0,0,1.5-1.2,1.5-2.3c0-1.2-0.8-2.3-4.6-3.5l-1.5-3.5
		l-0.8-3.5l-3.1,6.9c-3.1,1.1-4.6,2.3-4.6,3.5c0.8,1.1,1.5,2.3,1.5,2.3c-3.1,1.2-4.6,2.3-5.4,2.9c-0.8,1.2-0.8,2.3-0.8,2.9
		c-4.6,1.2-7.7,4-10.8,6.9c-2.3,2.9-3.8,6.3-3.8,10.4h3.1v31.1h6.2V277h-11.5v5.8h11.5v46.6h-0.8c-3.8-8.6-9.2-16.7-15.4-23.6
		c-15.4-18.4-36.9-32.8-62.3-42.6c0-3.5,0-9.2-4.6-15c-4.6-5.8-13.1-12.1-30.8-17.3c0,0,5.4-6.3,5.4-13.8c0-7.5-4.6-16.1-25.4-20.7
		l-8.5-21.9l-5.4-15V79c2.3,0,3.8,0.6,6.2,0.6c11.5,0,21.5-5.2,26.2-12.7c-5.4,5.2-13.1,8.6-23.1,8.6c-15.4,0-28.5-9.8-28.5-21.9
		c0-2.9,0.8-6.3,2.3-8.6c-3.8,3.5-6.2,8.1-6.2,13.2c0,8.6,7.7,16.7,18.5,20.1V159l-6.2,15.5l-8.5,21.9c-20,4.6-25.4,13.2-25.4,20.7
		c0.8,7.5,5.4,13.8,5.4,13.8c-16.9,5.2-26.2,11.5-30.8,17.3c-4.6,5.8-4.6,11.5-3.9,15c-26.2,9.8-47.7,24.2-63.1,42.6
		c-6.2,6.9-10.8,14.4-14.6,22.5v-46.1h11.5v-5.8h-11.5v-51.8h6.2v-30.5h3.1c0-4-1.5-7.5-4.6-10.4c-2.3-3.5-6.2-5.8-10-7.5
		c0-0.6,0-1.2-0.8-2.3c-0.8-1.1-2.3-2.3-5.4-2.9c0,0,0.8-1.1,0.8-2.3c0-1.2-0.8-2.9-3.8-3.5l-1.5-3.5l-1.5-4l-1.5,4l-0.8,3.5
		c-3.8,0.6-4.6,2.3-4.6,3.5c0,1.2,0.8,2.3,0.8,2.3c-2.3,0.6-3.8,1.7-4.6,2.9c-0.8,1.2-0.8,1.7-0.8,2.3c-4.6,1.7-8.5,4-10.8,7.5
		c-2.3,2.9-3.8,6.3-3.8,10.4h3.1v30.5h6.2v51.8H326v5.8h12.3v46.1h-1.5c-0.8-0.6-1.5-1.7-2.3-2.9c-10.8-12.1-25.4-22.5-43.1-28.8
		c0.8-2.3,0.8-6.3-2.3-10.4c-3.1-4-9.2-8.1-21.5-11.5c0,0,3.9-4.6,3.9-9.8c0-5.2-3.1-10.9-17.7-13.8l-5.4-15l-5.4-15l-5.4,15
		l-6.2,15c-13.8,2.9-16.9,8.6-16.9,13.8c0,5.2,3.8,9.8,3.8,9.8c-12.3,3.5-18.5,7.5-21.5,11.5c-3.1,4-3.1,8.1-2.3,10.4
		c-17.7,6.3-33.1,16.7-43.1,28.8c-7.7,9.8-13.1,20.1-15.4,31.7c-5.4-3.5-11.5-6.3-17.7-8.6c0.8-2.3,0.8-6.3-3.1-10.9
		c-3.1-4-10-9.2-23.1-13.2c0,0,3.8-4.6,3.8-9.8c0-5.8-3.1-12.1-18.5-15.5l-6.2-16.1c0,0-0.8-16.7-6.2-16.7c-6.2,0-6.2,16.7-6.2,16.7
		l-6.2,16.1c-15.4,3.5-19.2,9.8-19.2,15.5c0,5.2,3.8,9.8,3.8,9.8c-13.1,4-19.2,9.2-23.1,13.2c-3.1,4.6-3.1,8.6-3.1,10.9
		C6,350.7,0.6,353-4,356.5v143.4H1919.1z M1545.3,194.1h8.5v26.5h-8.5V194.1z M1532.2,194.1h8.5v26.5h-8.5V194.1z M1518.3,220.6
		v-26.5h9.2v26.5H1518.3z M1211.4,194.7h8.5v26.5h-8.5V194.7z M1197.6,194.7h9.2v26.5h-9.2V194.7z M1184.5,194.7h8.5v26.5h-8.5
		V194.7z M961.4,110.6h4.6v12.1h-4.6V110.6z M955.2,110.6h3.8v12.1h-3.8V110.6z M948.3,110.6h4.6v12.1h-4.6V110.6z M939.1,110.6h4.6
		v12.1h-4.6V110.6z M932.2,110.6h4.6v12.1h-4.6V110.6z M926,110.6h3.8v12.1H926V110.6z M698.3,194.7h9.2v26.5h-9.2V194.7z
		 M685.2,194.7h8.5v26.5h-8.5V194.7z M671.4,221.2v-26.5h9.2v26.5H671.4z M364.5,194.1h8.5v26.5h-8.5V194.1z M351.4,194.1h8.5v26.5
		h-8.5V194.1z M337.5,220.6v-26.5h8.5v26.5H337.5z"/>
</g>
</svg>
