<?xml version="1.0" encoding="utf-8"?>
<!-- Generator: Adobe Illustrator 25.4.1, SVG Export Plug-In . SVG Version: 6.00 Build 0)  -->
<svg version="1.1" id="Layer_1" xmlns="http://www.w3.org/2000/svg" xmlns:xlink="http://www.w3.org/1999/xlink" x="0px" y="0px"
	 viewBox="0 0 500 500" style="enable-background:new 0 0 500 500;" xml:space="preserve">
<style type="text/css">
	.st0{fill:#FFFFFF;}
	.st1{fill:#85A514;}
	.st2{fill:none;stroke:#85A514;stroke-width:8;stroke-linecap:round;stroke-miterlimit:10;}
</style>
<g>
	<g>
		<path class="st0" d="M383.1,324.1c-0.1,10.9-1.5,21.7-4.3,32.1c-3,11.3-7.5,22.1-13.4,32.1c-4.1,7.1-9,13.8-14.4,20
			c-3.7,4.3-7.8,8.4-12.1,12.1c-6.2,5.4-12.9,10.3-20,14.4l-2.6,1.5V485l7.4-3.2c11.9-5.2,23.2-11.9,33.6-19.7l0.1-0.1
			c0.3-0.2,0.6-0.4,0.8-0.6c12.8-9.7,24.2-21.1,33.8-33.8l0.6-0.8c7.8-10.5,14.4-21.8,19.7-33.7c4.9-11,8.6-22.6,11.1-34.5
			c2.4-11.2,3.6-22.8,3.7-34.4c0-0.4,0-47.2,0-47.2h-43.9L383.1,324.1z"/>
		<path class="st0" d="M316.3,209.3v198.8l8.7-7.8c2.7-2.4,5.2-4.9,7.6-7.6c9.3-10.2,16.4-22,21.1-34.9l0,0l0.6-1.6
			c3.8-10.8,5.7-22.2,5.9-33.7c0-0.4,0-0.9,0-1.4V209.3h-38.7L316.3,209.3z"/>
		<path class="st0" d="M143.6,209.3v44.5h104.6v196.6c-10.1-0.3-20.2-1.8-29.9-4.3c-11.4-3-22.5-7.6-32.7-13.6
			c-7.3-4.3-14.1-9.2-20.4-14.7c-4.4-3.8-8.5-8-12.3-12.3c-5.5-6.3-10.5-13.2-14.7-20.4c-6-10.2-10.6-21.2-13.6-32.7
			c-2.8-10.6-4.8-25.8-4.9-36.9l0-14.5h-44l0,14.5c0.1,10.2,1.1,26.6,3.7,39.3c2.5,12,6.3,23.8,11.3,35.1
			c5.3,12.1,12.1,23.6,20,34.2c0.2,0.3,0.5,0.6,0.7,0.9c9.8,13,21.4,24.6,34.5,34.5l0.1,0.1c0.2,0.1,0.4,0.3,0.7,0.5
			c10.6,8,22.2,14.7,34.2,20c11.2,5,23,8.8,35.1,11.3c11.9,2.5,24.1,3.7,36.4,3.7c0.4,0,0.9,0,1.4,0c11.8-0.1,23.6-1.3,35-3.7
			l4.2-0.9V209.3H143.6z"/>
		<path class="st1" d="M119.5,180.1c0.3-72.3,59.4-131.2,131.8-131.2c72.5,0,131.6,59,131.8,131.5l0,5.2H427l0-5.3
			c-0.1-46.9-18.4-90.9-51.6-124C342.3,23.2,298.2,5,251.3,5C161.7,5,86.6,72.1,76.6,161c-0.7,6.2-1.1,12.6-1.1,19
			c0,0.2,0,0.5,0,0.7v96.3h44L119.5,180.1L119.5,180.1z"/>
		<rect x="383.1" y="209.3" class="st0" width="44" height="44"/>
	</g>
	<g>
		<g>
			<path class="st2" d="M337.6,168.6l-2.1,5.3c-3.8-0.8-7.6-1.2-11.5-1.3c-21-0.2-43,10.6-59.3,21.7c-7.5-6.8-18.5-7-26.1,0
				c-16.3-11.1-38.4-21.8-59.3-21.7c-3.9,0-7.7,0.4-11.5,1.3l-2.1-5.3"/>
		</g>
		<path class="st0" d="M340.9,153.9c0,0-0.4,0-1,0c-7.9-0.1-59.3,0.2-87.3,26.9c-0.5,0.4-0.9,0.9-1.3,1.3c-0.4-0.4-0.9-0.9-1.3-1.3
			c-27.9-26.7-79.3-27-87.3-26.9c-0.7,0-1,0-1,0l16.2-55.6c0,0,50.3,0,73.4,20.5c23.1-20.5,73.4-20.5,73.4-20.5L340.9,153.9z"/>
	</g>
</g>
</svg>
