<?xml version="1.0" encoding="utf-8"?>
<!-- Generator: Adobe Illustrator 25.4.1, SVG Export Plug-In . SVG Version: 6.00 Build 0)  -->
<svg fill="#F5F5F5" version="1.1" id="Layer_1" xmlns="http://www.w3.org/2000/svg" xmlns:xlink="http://www.w3.org/1999/xlink" x="0px" y="0px"
	 viewBox="0 0 500 500" style="enable-background:new 0 0 500 500;" xml:space="preserve">
<g>
	<g>
		<path d="M11,302c46.5,0,92.9,0,139.7,0c0-9.1,0-17.8,0-26.9c-37.4,0-74.7,0-112.7,0c0-2.1,0-3.9,0-5.6c0-18.7-0.1-37.3,0-56
			c0.1-26,18.9-48.9,45.1-51.4c13-1.2,26-1.9,39.6-2.9c0,10.4,0,19.8,0,29.5c11,0.7,21.1,2.8,30.4,7.9c14.4,7.8,22.6,20,25.8,35.8
			c0.6,2.9,1.1,5.9,0.9,8.8c-0.1,3.5,1.4,4.6,4.6,4.9c11.4,0.8,22.1,3.9,31.4,11c11,8.4,19.1,19.1,19.9,33.1
			c1.2,20.4,1,40.8,1.2,61.3c0.1,11.6,0,23.3,0,35.7c-75.5,0-150.7,0-226,0C11,358.6,11,330.3,11,302z"/>
		<path d="M352,19c0,122.4,0,244.8,0,367.6c-28.6,0-57,0-86,0c0-1.8,0-3.5,0-5.3c0-99.9-0.1-199.9,0.1-299.8
			c0-13.4,1.2-26.9,9.3-38.5c7.6-10.8,18.1-17.3,30.5-21c3-0.9,6-2,9-3C327.3,19,339.6,19,352,19z"/>
		<path d="M308,500.9c0-9.5-0.2-19,0-28.5c0.6-20.7,7.9-38,26.2-49.3c8.4-5.2,17.6-7.8,27.3-8.1c10.6-0.4,21.2-0.1,32.4-0.1
			c0-2.4,0-4.4,0-6.3c0-55.3-0.1-110.6,0.1-166c0-14.2,4.8-27.1,14.5-37.6c7.7-8.4,17.9-13.8,29.2-14.8c13.8-1.2,27.8-0.3,42.2-0.3
			c0,1.1,0,2.9,0,4.7c0,63,0.1,126-0.1,189c0,10.4-1.5,20.9-6,30.6c-7.4,16.2-20.7,24.8-37.5,28.7c-4.3,1-8.6,1.6-13.1,2.4
			c-1.1,10.4-2.6,20.8-8.2,29.9c-7.3,12-17.9,19.8-31.4,23.7c-1.6,0.5-3.2,1.3-4.7,2C355.3,500.9,331.6,500.9,308,500.9z"/>
		<path d="M490.9,114c-13.3,13.1-26.5,26.2-39.8,39.3c-7.8,7.7-7.7,7.7-15.6-0.1c-13.5-13.5-27.1-27.1-41.8-41.8
			c17-15.5,33.9-30.9,51.3-46.7c5.1,5.1,12.3,12.2,19.4,19.4c8.8,8.9,17.6,17.9,26.5,26.9C490.9,112,490.9,113,490.9,114z"/>
	</g>
</g>
</svg>
